<svg width="86" height="31" viewBox="0 0 86 31" fill="none" xmlns="http://www.w3.org/2000/svg">
<path fill-rule="evenodd" clip-rule="evenodd" d="M20.6098 18.6913L20.144 18.4931L19.9456 18.4156L19.2986 18.1399L19.0657 18.0451L18.5394 17.8298C18.2893 17.7091 18.0132 17.6747 17.7372 17.6747C17.1161 17.6747 16.5295 17.9504 16.1413 18.4156L15.9429 18.6482L15.7445 18.8636L15.6669 18.9584L15.6237 19.0014L15.1579 19.5442L14.6921 20.0869C14.0882 20.7848 14.0106 21.7841 14.4937 22.5595L14.7266 22.93L14.8646 23.1626L15.2959 23.8604L15.6496 24.429C16.0378 25.0493 16.7193 25.4456 17.4439 25.4456C17.5992 25.4456 17.7717 25.4284 17.9356 25.3853L18.6602 25.213L19.3417 25.0579L19.5142 25.0149L19.7903 24.9545L20.0836 24.877C20.9807 24.6616 21.6277 23.9035 21.7053 22.9903L21.7657 22.1718L21.783 21.9995L21.8261 21.4912L21.8434 21.2155L21.8865 20.7848C21.9296 20.3368 21.8089 19.906 21.5759 19.5183C21.3603 19.1479 21.0325 18.855 20.6184 18.6827L20.6098 18.6913ZM20.6098 20.6986L20.5667 21.0691L20.5494 21.3189V21.362L20.5321 21.5602L20.489 22.1632V22.1804L20.4286 22.9214C20.4114 23.2746 20.1526 23.5675 19.8075 23.645L19.497 23.7226L19.2209 23.7829L19.0484 23.826L18.3238 23.9983L17.6423 24.1533C17.5819 24.1706 17.5043 24.1706 17.4439 24.1706C17.1506 24.1706 16.9004 24.0327 16.7452 23.7829L16.5468 23.4727L16.3915 23.2229L15.9429 22.482L15.572 21.8961C15.3994 21.586 15.4167 21.2155 15.6496 20.9399L15.9257 20.6297L16.1241 20.4143L16.7107 19.7165L16.8487 19.5614L17.0988 19.2685C17.2541 19.0962 17.487 18.9756 17.7199 18.9756C17.8407 18.9756 17.9356 18.9928 18.0305 19.0359L18.7292 19.3288L18.8845 19.3891L19.3762 19.5873L19.4538 19.6303L20.0749 19.8802C20.2302 19.9405 20.3682 20.0525 20.4631 20.2076C20.558 20.3799 20.6012 20.5608 20.6012 20.7159L20.6098 20.6986Z" fill="#D70F15"/>
<path fill-rule="evenodd" clip-rule="evenodd" d="M12.0264 14.427C13.9932 13.0227 16.5121 12.3249 19.0224 12.5575C19.3761 12.6006 19.7211 12.6351 20.0576 12.7126C19.238 12.3852 18.4013 12.1268 17.5214 11.9889C15.7098 11.696 14.0104 11.9286 12.3369 12.48C11.5778 12.7126 10.8532 13.0227 10.1372 13.3329C9.49021 13.6258 8.85186 13.9187 8.18763 14.2116C7.64416 14.4443 7.05757 14.6769 6.45372 14.8147C5.94476 14.9353 5.41855 14.9525 4.89234 14.8147C4.28849 14.6424 3.82267 14.2289 3.45173 13.7206C3.15843 13.3157 3.02041 12.7298 3.06354 12.256C3.06354 12.1957 3.06354 12.1612 3.0808 12.1009C2.24404 13.3673 3.45173 15.5125 4.79745 15.9605C5.67734 16.2707 6.54861 16.2707 7.60103 16.1328C5.4358 19.3808 5.77223 23.2576 9.72313 25.6699C9.49021 25.4373 9.29181 25.1788 9.13653 24.9118C6.83328 21.5432 8.93812 16.6325 12.0177 14.4184L12.0264 14.427Z" fill="#D70F15"/>
<path fill-rule="evenodd" clip-rule="evenodd" d="M27.123 18.1832C27.123 18.1832 28.2186 21.0262 27.7441 23.404C27.4681 24.7825 31.0567 20.0785 30.5132 14.1168C30.0474 9.03382 29.5988 17.4251 27.123 18.1832ZM29.4435 15.8657C29.5643 15.3574 29.7541 14.9697 29.8921 14.9869C30.0301 15.03 30.0301 15.4522 29.9094 15.9605C29.7886 16.4688 29.5988 16.8564 29.4608 16.8392C29.3228 16.822 29.3055 16.374 29.4435 15.8657Z" fill="#D70F15"/>
<path fill-rule="evenodd" clip-rule="evenodd" d="M20.7822 4.6916C21.5845 5.43251 22.404 10.4121 25.3628 8.66322C25.7165 8.44784 25.7942 7.96539 25.5181 7.64662C23.4133 5.29466 20.7822 4.68298 20.7822 4.68298V4.6916Z" fill="#D70F15"/>
<path fill-rule="evenodd" clip-rule="evenodd" d="M17.8401 13.4363C13.2595 13.4363 9.51562 17.1581 9.51562 21.75C9.51562 26.3419 13.2422 30.0637 17.8401 30.0637C22.438 30.0637 26.1646 26.3419 26.1646 21.75C26.1646 17.1581 22.4207 13.4363 17.8401 13.4363ZM23.0418 16.3741C23.8441 17.0719 24.5083 17.9679 24.931 19.0189C24.9483 19.1396 24.9483 19.1396 24.9138 19.2946C24.8706 19.3894 24.8534 19.4325 24.8189 19.4928C24.8016 19.5359 24.724 19.5876 24.724 19.5876C24.6463 19.6306 24.5514 19.6048 24.4738 19.5445C24.2754 19.4239 23.499 18.8639 23.2834 18.726C23.085 18.5882 22.9297 18.3728 22.852 18.123C22.7744 17.8904 22.4639 16.9341 22.4207 16.7015C22.4035 16.5464 22.4207 16.3913 22.576 16.3482C22.5932 16.3482 22.7313 16.3052 22.7744 16.3052C22.9469 16.3224 22.9469 16.3224 23.0504 16.3655L23.0418 16.3741ZM14.5189 15.323C14.5966 15.1679 14.5966 15.1679 14.6742 15.0904C15.6662 14.5993 16.7618 14.3495 17.9091 14.3926C18.0299 14.4356 18.0299 14.4356 18.142 14.5304C18.142 14.5476 18.2369 14.6683 18.28 14.7027C18.3749 14.8233 18.2973 14.9784 18.1852 15.0732C17.9868 15.211 17.1327 15.7365 16.9171 15.8744C16.7014 16.0122 16.4513 16.0725 16.1752 16.0295C15.925 15.9864 14.9244 15.8916 14.6915 15.8141C14.5362 15.771 14.4154 15.6762 14.4413 15.5212C14.4586 15.5384 14.5017 15.4436 14.5189 15.323ZM10.3093 22.4133C10.1367 21.3192 10.2316 20.1906 10.5853 19.1223C10.6629 19.0276 10.6629 19.0276 10.801 18.9242C10.8958 18.8811 10.9562 18.8639 11.0166 18.8466C11.1719 18.7863 11.2927 18.9069 11.3444 19.0448C11.3617 19.1051 11.4393 19.3549 11.4393 19.3549C11.5342 19.7426 11.6895 20.3285 11.7326 20.5008C11.793 20.7506 11.7757 21.0091 11.6722 21.2417C11.5946 21.414 11.3185 22.0429 11.146 22.3875C11.1029 22.4823 11.0684 22.5426 11.0511 22.5857C10.9735 22.7235 10.8355 22.801 10.6974 22.7235C10.6371 22.7063 10.6026 22.6632 10.499 22.6029C10.3438 22.5253 10.3438 22.5253 10.3006 22.4047L10.3093 22.4133ZM16.7791 28.332C16.7618 28.3492 16.7618 28.3492 16.7359 28.3751C16.6928 28.4182 16.6583 28.4354 16.5979 28.4957C16.4426 28.5732 16.4426 28.5732 16.3219 28.5905C15.2263 28.4182 14.1998 27.9702 13.3026 27.2896C13.225 27.1948 13.225 27.1948 13.1818 27.0397C13.1818 26.945 13.1646 26.8847 13.1646 26.8243C13.1646 26.7468 13.2077 26.6865 13.2422 26.652C13.3026 26.609 13.3803 26.5745 13.4579 26.5745C13.6908 26.5745 14.7087 26.652 14.9589 26.6693C15.2091 26.6865 15.4678 26.7899 15.6404 26.9622C15.8129 27.1345 16.5548 27.7979 16.71 27.996C16.8481 28.0908 16.8826 28.2459 16.7704 28.3492L16.7791 28.332ZM24.5428 24.4982C24.5601 24.5585 24.5859 24.593 24.6205 24.6964C24.6377 24.8515 24.6377 24.8515 24.6205 24.9721C24.1115 25.9456 23.3524 26.7985 22.4207 27.4274C22.3 27.4705 22.3 27.4705 22.1447 27.4446C22.0498 27.4274 21.9894 27.4016 21.929 27.3843C21.8859 27.3671 21.8686 27.3671 21.8514 27.324C21.7737 27.2465 21.7565 27.1259 21.791 27.0139C21.8686 26.7813 22.2568 25.8422 22.3603 25.6096C22.4552 25.377 22.6364 25.1788 22.8693 25.041C23.085 24.9204 23.9648 24.4379 24.1719 24.3432C24.2495 24.3259 24.3875 24.3259 24.3875 24.3259C24.4652 24.3862 24.5083 24.4207 24.5428 24.4982ZM25.4227 23.0336C25.3796 23.2663 25.1898 23.4386 24.9914 23.4041C24.9483 23.4041 24.931 23.3869 24.8965 23.361C24.8534 23.3438 24.8189 23.3179 24.7757 23.3179C24.655 23.2749 24.5256 23.3007 24.4048 23.361C24.4048 23.361 22.9038 24.0589 22.2827 24.3345C22.0067 24.4552 21.8773 24.6878 21.7565 24.9548C21.5581 25.4201 20.8593 27.1517 20.566 27.8151C20.5229 27.8926 20.5229 27.9702 20.5488 28.0477C20.566 28.1425 20.6092 28.22 20.6868 28.2803C20.7472 28.3234 20.7817 28.3751 20.8076 28.4526C20.868 28.6508 20.7127 28.8403 20.4798 28.9178L18.9615 29.3228C18.7286 29.3831 18.4957 29.2797 18.4526 29.0902C18.4353 29.0126 18.4526 28.9178 18.4957 28.8403C18.5561 28.7197 18.5561 28.6077 18.513 28.4871C18.4957 28.444 18.4526 28.3923 18.4181 28.3492C17.8919 27.8065 16.641 26.497 16.1925 26.0145C15.9941 25.8164 15.7611 25.6871 15.4937 25.6871C15.1228 25.6871 13.4838 25.6699 12.4486 25.6699C12.4055 25.6699 12.371 25.6699 12.3278 25.6699C12.1553 25.6699 11.9741 25.7647 11.8965 25.9456C11.8534 26.0231 11.8189 26.0834 11.7412 26.1179C11.5687 26.1782 11.3876 26.1007 11.2927 25.9197L10.6888 24.7912C10.6112 24.6361 10.6457 24.4207 10.7837 24.3259C10.8441 24.2829 10.9217 24.2656 10.9821 24.2656C11.1805 24.2829 11.353 24.1881 11.4479 24.0158C11.4652 23.9986 11.4652 23.9555 11.4911 23.9382C11.7671 23.4299 12.4227 22.1118 12.8195 21.2503C12.9403 21.0005 12.9144 20.7075 12.8195 20.4318C12.6039 19.8632 12.0949 18.502 11.9655 18.1919C11.9655 18.1747 11.9483 18.1488 11.9483 18.1488C11.8879 18.0282 11.8102 17.9334 11.6722 17.9162C11.5773 17.9162 11.4738 17.8559 11.3962 17.7611C11.3013 17.6233 11.3185 17.4079 11.4393 17.2959L12.4141 16.1673C12.5521 16.0295 12.7419 16.0122 12.9058 16.107C12.9489 16.1501 12.9834 16.2018 13.0007 16.2621C13.0438 16.3999 13.156 16.4775 13.294 16.4947C13.294 16.4947 13.3112 16.4947 13.3371 16.4947C14.217 16.5378 16.6152 16.7445 16.6152 16.7445C16.8136 16.7618 16.9861 16.7015 17.1586 16.5895C17.2535 16.5291 19.1082 15.2627 19.436 15.0473C19.5568 14.9698 19.6344 14.8923 19.6862 14.7716C19.7034 14.7113 19.7293 14.6769 19.7293 14.6166C19.7293 14.5563 19.7465 14.496 19.7897 14.4615C19.8846 14.3064 20.1175 14.2633 20.2986 14.3236L21.5236 14.8319C21.6961 14.8923 21.7996 15.0818 21.7565 15.2627C21.7392 15.3402 21.6961 15.4006 21.6616 15.435C21.6443 15.4522 21.584 15.5298 21.584 15.5298C21.5236 15.6504 21.5063 15.7796 21.5236 15.9002C21.6789 16.6411 22.0498 18.123 22.1274 18.4676C22.1878 18.7002 22.2827 18.9156 22.4811 19.0534C23.6715 19.9322 24.2323 20.3543 24.6808 20.6903C24.7757 20.7678 24.8792 20.8281 24.9741 20.8626C25.0518 20.8798 25.1294 20.9057 25.2243 20.8798C25.2416 20.8798 25.2674 20.8798 25.2847 20.8798C25.4831 20.9229 25.6125 21.1297 25.5607 21.3709L25.44 23.0078L25.4227 23.0336Z" fill="#D70F15"/>
<path fill-rule="evenodd" clip-rule="evenodd" d="M14.1743 30.124C10.0595 29.521 7.29045 27.4361 5.40127 25.5321C4.25396 24.2485 2.78747 21.931 3.80539 18.8726C1.62291 18.2092 1.00181 16.4344 1.31236 13.1693C1.46763 11.4548 2.96863 7.03523 5.89298 4.39035C4.87506 5.94971 4.59039 7.43153 5.246 8.40505C5.26325 8.42228 5.28913 8.44813 5.30638 8.46536C5.59968 7.64691 5.98787 6.88877 6.45369 6.20817C8.01507 3.9079 10.4736 2.15901 13.2772 1.43533C13.6481 1.34056 14.0018 1.26303 14.3727 1.20272C15.4683 1.14241 16.538 1.20272 17.5731 1.37502C22.6627 2.19347 27.0104 6.16509 27.4158 7.35399C27.8644 8.62043 27.7437 9.00812 28.0369 9.49919C28.313 9.94718 29.1498 10.4727 29.8312 11.0413C29.8916 11.0844 29.9693 11.0241 29.9261 10.981C29.4948 10.4899 28.7529 9.7318 28.52 9.34411C28.244 8.87889 28.4424 7.53491 28.0542 6.88877C27.0967 5.37249 23.8445 1.2458 17.8147 0.211969C14.0881 -0.408328 9.99914 0.306736 6.60034 2.70177C3.18429 5.01927 -0.205888 9.51642 0.00977168 15.8831C0.0529037 18.1575 0.82928 20.7507 1.68329 22.267C3.78814 26.5918 8.50678 30.0724 14.0277 30.4687C14.1657 30.4687 14.2433 30.4687 14.2778 30.3911C14.2951 30.3308 14.2951 30.1585 14.1571 30.1413L14.1743 30.124Z" fill="#D70F15"/>
<path fill-rule="evenodd" clip-rule="evenodd" d="M38.7275 18.635H35.7627L37.2816 21.1114H38.7275V24.774H41.3126V21.1114H44.701V18.635H41.3126V9.18918H44.701V6.60901H38.7275V18.635Z" fill="#D70F15"/>
<path fill-rule="evenodd" clip-rule="evenodd" d="M51.5408 18.635H48.4502L50.0105 21.1114H51.5408V24.774H54.1812V21.1114H57.6769V18.635H54.1812V9.18918H57.6769V6.60901H51.5408V18.635Z" fill="#D70F15"/>
<path fill-rule="evenodd" clip-rule="evenodd" d="M68.6381 13.7093C68.6381 14.7152 68.5033 15.5436 68.2638 16.1797C67.9643 16.9784 67.4852 17.6885 66.7815 18.2802V6.60901H64.1762V18.65H61.1367L62.6939 21.1203H64.1762V24.7592H66.7815V21.1203H68.1739C68.3836 21.1203 68.5183 21.1499 68.5483 21.1943C68.5782 21.2239 68.6231 21.3274 68.6231 21.4605V24.774H71.2284V21.1943C71.2284 20.5286 71.0188 19.9221 70.6145 19.4488C70.345 19.1085 70.0006 18.9162 69.5664 18.8127C70.0755 18.2506 70.4498 17.6145 70.7193 16.9341C71.0637 16.0613 71.2284 15.0259 71.2284 13.8573V6.63859H68.6231V13.6945H68.6531L68.6381 13.7093Z" fill="#D70F15"/>
<path fill-rule="evenodd" clip-rule="evenodd" d="M85.3563 13.9163C85.3563 11.9733 84.6567 10.223 83.2427 8.72497C82.0966 7.52354 80.5784 6.5446 78.7625 5.90681L78.3308 5.74365V18.6479H75.2646L76.8126 21.1249H78.3308V24.7737H80.9207V21.1249H82.3943C82.6325 21.1249 82.6622 21.2287 82.692 21.2584C82.692 21.2584 82.7218 21.3622 82.7218 21.6885V24.7737H85.3117V21.1842C85.3117 20.4871 85.0735 19.9086 84.6716 19.5081C84.3739 19.2115 84.0316 19.0038 83.6 18.8704C84.2698 18.0249 84.7461 17.1201 85.0437 16.0819C85.2521 15.3847 85.3414 14.6431 85.3414 13.9015L85.3563 13.9163ZM82.3943 16.2302C82.0966 17.0015 81.5905 17.6986 80.9207 18.2771V10.0302C81.3524 10.4307 81.7692 10.9053 82.0371 11.4393C82.5134 12.2848 82.7367 13.2192 82.7367 14.2575C82.7367 14.9546 82.6325 15.6369 82.3943 16.2302Z" fill="#D70F15"/>
</svg>
