<?xml version="1.0" encoding="UTF-8"?>
<svg xmlns="http://www.w3.org/2000/svg" xmlns:xlink="http://www.w3.org/1999/xlink" width="400pt" height="400pt" viewBox="0 0 400 400" version="1.1">
<g id="surface1">
<path style=" stroke:none;fill-rule:nonzero;fill:rgb(0%,0%,0%);fill-opacity:1;" d="M 53.5625 98.988281 L 76.058594 299.980469 L 76.976563 301.503906 L 198.792969 384.785156 L 200 385.609375 L 201.207031 384.785156 L 323.023438 301.503906 L 323.832031 300.949219 L 346.285156 100.375 L 346.4375 98.988281 L 345.230469 98.289063 L 200 14.390625 Z M 53.5625 98.988281 "/>
<path style=" stroke:none;fill-rule:nonzero;fill:rgb(100%,100%,100%);fill-opacity:1;" d="M 252.035156 116.140625 L 262.378906 124.097656 L 255.511719 123.203125 L 260.09375 128.640625 L 252.035156 127.40625 L 254.382813 130.914063 L 257.648438 132.050781 L 250.953125 135.457031 L 240.671875 132.050781 L 234.960938 135.457031 L 232.675781 121.824219 L 239.53125 123.203125 Z M 252.035156 116.140625 "/>
<path style=" stroke:none;fill-rule:nonzero;fill:rgb(100%,100%,100%);fill-opacity:1;" d="M 227.300781 102.648438 L 232.664063 99.980469 L 240.714844 102.648438 L 246.078125 94.554688 L 229.980469 80.921875 L 215.402344 74.101563 L 216.542969 83.96875 L 201.695313 99.980469 L 187.058594 83.96875 L 171.992188 79.78125 L 142.585938 79.78125 L 159.425781 91.144531 L 148.003906 91.144531 L 166.28125 102.648438 L 157.140625 102.648438 L 173.648438 113.722656 L 163.996094 113.722656 L 178.847656 122.960938 L 168.28125 129.332031 L 181.695313 134.667969 L 176.332031 140.003906 L 189.742188 140.003906 L 197.792969 142.671875 L 205.839844 142.671875 L 224.539063 151.363281 L 232.664063 137.730469 L 229.980469 122.960938 L 227.300781 110.652344 Z M 227.300781 102.648438 "/>
<path style=" stroke:none;fill-rule:nonzero;fill:rgb(100%,100%,100%);fill-opacity:1;" d="M 221.589844 153.929688 L 210.832031 170.679688 L 202.808594 174.089844 L 189.398438 188.617188 L 170.621094 188.617188 L 167.9375 193.953125 L 175.984375 193.953125 L 181.347656 201.960938 L 165.253906 201.960938 L 157.207031 193.953125 L 167.9375 177.945313 L 181.347656 177.945313 L 181.347656 164.605469 L 159.886719 161.9375 L 154.523438 148.59375 L 159.886719 140.589844 L 157.207031 137.921875 L 146.472656 140.589844 L 149.15625 132.585938 L 157.207031 132.585938 L 167.9375 143.257813 L 159.886719 148.59375 L 162.570313 156.597656 L 181.347656 153.929688 L 192.554688 145.683594 L 203.976563 145.683594 Z M 221.589844 153.929688 "/>
<path style=" stroke:none;fill-rule:nonzero;fill:rgb(100%,100%,100%);fill-opacity:1;" d="M 199.605469 94.554688 L 188.878906 82.4375 L 191.414063 71.832031 L 205.121094 69.558594 L 198.265625 76.488281 L 198.265625 82.4375 Z M 199.605469 94.554688 "/>
<path style=" stroke:none;fill-rule:nonzero;fill:rgb(100%,100%,100%);fill-opacity:1;" d="M 224.554688 157.296875 L 233.0625 163.277344 L 234.136719 170.835938 L 230.378906 176.617188 L 240.039063 180.617188 L 247.25 177.355469 L 253.804688 182.570313 L 241.113281 192.628906 L 230.378906 189.960938 L 234.136719 186.484375 L 220.371094 179.3125 L 213.816406 172.789063 Z M 224.554688 157.296875 "/>
<path style=" stroke:none;fill-rule:nonzero;fill:rgb(100%,100%,100%);fill-opacity:1;" d="M 200 14.390625 L 198.933594 15.007813 L 53.5625 98.988281 L 76.0625 299.976563 L 76.976563 301.503906 L 198.796875 384.789063 L 200 385.609375 L 201.207031 384.789063 L 323.023438 301.503906 L 323.832031 300.953125 L 346.28125 100.375 L 346.4375 98.988281 L 345.230469 98.289063 L 201.066406 15.007813 Z M 343.09375 101.988281 L 342.039063 99.902344 L 319.695313 299.503906 L 320.613281 297.976563 L 198.796875 381.261719 L 201.207031 381.261719 L 79.386719 297.976563 L 80.304688 299.503906 L 57.960938 99.902344 L 56.90625 101.988281 L 201.066406 18.703125 L 198.933594 18.703125 Z M 343.09375 101.988281 "/>
<path style=" stroke:none;fill-rule:nonzero;fill:rgb(100%,100%,100%);fill-opacity:1;" d="M 200 32.539063 L 198.933594 33.15625 L 68.652344 108.425781 L 67.441406 109.125 L 67.597656 110.511719 L 87.792969 290.910156 L 88.707031 292.433594 L 198.796875 367.707031 L 200 368.53125 L 201.207031 367.707031 L 311.292969 292.433594 L 312.101563 291.882813 L 332.402344 110.511719 L 332.554688 109.125 L 331.347656 108.425781 L 201.066406 33.15625 Z M 329.210938 112.125 L 328.15625 110.039063 L 307.964844 290.4375 L 308.882813 288.910156 L 198.796875 364.179688 L 201.207031 364.179688 L 91.117188 288.910156 L 92.035156 290.4375 L 71.84375 110.039063 L 70.789063 112.125 L 201.066406 36.851563 L 198.933594 36.851563 Z M 329.210938 112.125 "/>
<path style=" stroke:none;fill-rule:nonzero;fill:rgb(100%,100%,100%);fill-opacity:1;" d="M 180.785156 283.742188 L 182.917969 283.742188 L 182.917969 279.472656 L 112.460938 279.472656 L 112.460938 283.742188 Z M 180.785156 283.742188 "/>
<path style=" stroke:none;fill-rule:nonzero;fill:rgb(100%,100%,100%);fill-opacity:1;" d="M 285.402344 283.742188 L 287.539063 283.742188 L 287.539063 279.472656 L 217.082031 279.472656 L 217.082031 283.742188 Z M 285.402344 283.742188 "/>
<path style=" stroke:none;fill-rule:nonzero;fill:rgb(100%,100%,100%);fill-opacity:1;" d="M 271.839844 226.628906 L 260.027344 226.628906 L 260.027344 220.640625 L 290.515625 220.640625 L 290.515625 226.628906 L 278.699219 226.628906 L 278.699219 259.1875 L 271.839844 259.1875 Z M 246.414063 244.488281 L 240.480469 228.808594 L 234.4375 244.488281 Z M 237.703125 220.640625 L 243.636719 220.640625 L 260.242188 259.1875 L 252.402344 259.1875 L 248.808594 250.371094 L 232.09375 250.371094 L 228.609375 259.1875 L 220.933594 259.1875 Z M 183.148438 220.640625 L 192.242188 220.640625 L 210.152344 249.496094 L 210.261719 249.496094 L 210.261719 220.640625 L 217.125 220.640625 L 217.125 259.1875 L 208.410156 259.1875 L 190.117188 229.40625 L 190.007813 229.40625 L 190.007813 259.1875 L 183.148438 259.1875 Z M 165.507813 244.488281 L 159.574219 228.808594 L 153.53125 244.488281 Z M 156.796875 220.640625 L 162.730469 220.640625 L 179.339844 259.1875 L 171.5 259.1875 L 167.90625 250.371094 L 151.191406 250.371094 L 147.707031 259.1875 L 140.027344 259.1875 Z M 113.515625 220.640625 L 138.394531 220.640625 L 138.394531 226.628906 L 120.375 226.628906 L 120.375 237.191406 L 137.359375 237.191406 L 137.359375 242.964844 L 120.375 242.964844 L 120.375 259.1875 L 113.515625 259.1875 Z M 113.515625 220.640625 "/>
<path style=" stroke:none;fill-rule:nonzero;fill:rgb(100%,100%,100%);fill-opacity:1;" d="M 221.007813 325.261719 C 219.855469 325.816406 218.589844 326.246094 217.214844 326.554688 C 215.835938 326.867188 214.253906 327.019531 212.457031 327.019531 C 210.621094 327.019531 208.945313 326.726563 207.429688 326.140625 C 205.914063 325.554688 204.613281 324.730469 203.523438 323.675781 C 202.433594 322.617188 201.585938 321.359375 200.976563 319.894531 C 200.367188 318.433594 200.0625 316.816406 200.0625 315.042969 C 200.0625 313.226563 200.378906 311.589844 201.007813 310.125 C 201.636719 308.664063 202.503906 307.421875 203.601563 306.394531 C 204.703125 305.371094 206 304.582031 207.496094 304.027344 C 208.988281 303.472656 210.613281 303.191406 212.363281 303.191406 C 214.175781 303.191406 215.835938 303.453125 217.34375 303.976563 C 218.847656 304.5 220.058594 305.1875 220.976563 306.042969 L 218.191406 309.054688 C 217.617188 308.414063 216.808594 307.867188 215.773438 307.421875 C 214.738281 306.972656 213.609375 306.746094 212.394531 306.746094 C 211.199219 306.746094 210.117188 306.960938 209.144531 307.390625 C 208.171875 307.816406 207.34375 308.402344 206.660156 309.148438 C 205.976563 309.898438 205.449219 310.773438 205.078125 311.777344 C 204.703125 312.78125 204.515625 313.867188 204.515625 315.042969 C 204.515625 316.261719 204.703125 317.375 205.078125 318.390625 C 205.449219 319.402344 205.984375 320.285156 206.679688 321.03125 C 207.371094 321.777344 208.214844 322.359375 209.207031 322.777344 C 210.199219 323.195313 211.328125 323.402344 212.585938 323.402344 C 214.316406 323.402344 215.820313 323.136719 217.101563 322.601563 L 217.101563 316.835938 L 212.332031 316.835938 L 212.332031 313.507813 L 221.007813 313.507813 Z M 179.085938 303.769531 L 183.121094 303.769531 L 183.121094 313.570313 L 183.21875 313.570313 L 192.699219 303.769531 L 198.144531 303.769531 L 187.542969 314.242188 L 198.847656 326.445313 L 193.179688 326.445313 L 183.21875 315.074219 L 183.121094 315.074219 L 183.121094 326.445313 L 179.085938 326.445313 Z M 179.085938 303.769531 "/>
<path style=" stroke:none;fill-rule:nonzero;fill:rgb(100%,100%,100%);fill-opacity:1;" d="M 195.730469 281.609375 C 195.730469 279.25 197.640625 277.335938 200 277.335938 C 202.359375 277.335938 204.269531 279.25 204.269531 281.609375 C 204.269531 283.964844 202.359375 285.878906 200 285.878906 C 197.640625 285.878906 195.730469 283.964844 195.730469 281.609375 M 208.542969 281.609375 C 208.542969 276.890625 204.71875 273.066406 200 273.066406 C 195.285156 273.066406 191.460938 276.890625 191.460938 281.609375 C 191.460938 286.324219 195.285156 290.148438 200 290.148438 C 204.71875 290.148438 208.542969 286.324219 208.542969 281.609375 "/>
</g>
</svg>
