<?xml version="1.0" encoding="UTF-8"?>
<svg xmlns="http://www.w3.org/2000/svg" xmlns:xlink="http://www.w3.org/1999/xlink" width="4200pt" height="3000pt" viewBox="0 0 4200 3000" version="1.1">
<defs>
<clipPath id="clip1">
  <path d="M 3372 1224 L 4200 1224 L 4200 2052 L 3372 2052 Z M 3372 1224 "/>
</clipPath>
<clipPath id="clip2">
  <path d="M 3787.796875 1858.195313 C 3666.03125 1858.195313 3566.960938 1759.414063 3566.960938 1638.003906 C 3566.960938 1516.585938 3666.03125 1417.804688 3787.796875 1417.804688 C 3909.5625 1417.804688 4008.632813 1516.585938 4008.632813 1638.003906 C 4008.632813 1759.414063 3909.5625 1858.195313 3787.796875 1858.195313 M 3787.796875 1224 C 3558.851563 1224 3372.59375 1409.71875 3372.59375 1638.003906 C 3372.59375 1866.277344 3558.851563 2052 3787.796875 2052 C 4016.738281 2052 4203 1866.277344 4203 1638.003906 C 4203 1409.71875 4016.738281 1224 3787.796875 1224 "/>
</clipPath>
<clipPath id="clip3">
  <path d="M 1480 912 L 1817 912 L 1817 2223 L 1480 2223 Z M 1480 912 "/>
</clipPath>
<clipPath id="clip4">
  <path d="M 1494.875 1944.351563 C 1531.269531 2084.378906 1617.734375 2170.390625 1707.152344 2223 L 1816.703125 2111.261719 C 1816.703125 2111.261719 1739.128906 2041.632813 1713.648438 1978.5625 C 1691.644531 1924.089844 1675.253906 1855.625 1675.070313 1759.640625 C 1675.0625 1753.144531 1676.5 1686.753906 1678.320313 1596.695313 C 1680.238281 1502.164063 1687.765625 1315.390625 1692.183594 1141.898438 C 1694.257813 1060.359375 1695.265625 978.527344 1692.832031 912 C 1627.328125 933.585938 1563.285156 965.066406 1507.328125 997.15625 C 1507.394531 1007.527344 1507.46875 1017.867188 1507.496094 1028.390625 L 1503.523438 1190.5625 L 1502.640625 1190.527344 C 1502.640625 1190.527344 1480.386719 1743.617188 1480.953125 1770.179688 C 1482.199219 1828.855469 1486.855469 1891.394531 1494.875 1944.351563 "/>
</clipPath>
<clipPath id="clip5">
  <path d="M 3 912 L 339 912 L 339 2223 L 3 2223 Z M 3 912 "/>
</clipPath>
<clipPath id="clip6">
  <path d="M 20.695313 1965.632813 C 22.113281 1973.464844 24.925781 1983.699219 28.484375 1994.859375 C 71.382813 2106.085938 148.53125 2177.351563 227.410156 2223 L 338.761719 2109.589844 C 338.761719 2109.589844 261.1875 2040.058594 235.707031 1977.078125 C 213.699219 1922.679688 197.3125 1854.308594 197.128906 1758.460938 C 197.121094 1751.972656 198.558594 1685.671875 200.378906 1595.738281 C 202.292969 1501.339844 209.824219 1314.824219 214.242188 1141.578125 C 216.320313 1060.152344 217.316406 978.433594 214.890625 912 C 149.390625 933.554688 85.34375 964.992188 29.386719 997.035156 C 29.453125 1007.394531 29.527344 1017.722656 29.550781 1028.230469 L 25.582031 1190.167969 L 24.699219 1190.140625 C 24.699219 1190.140625 2.449219 1742.453125 3.011719 1768.984375 C 4.441406 1836.214844 10.347656 1908.53125 20.695313 1965.632813 "/>
</clipPath>
<clipPath id="clip7">
  <path d="M 2889 768 L 3292 768 L 3292 2235 L 2889 2235 Z M 2889 768 "/>
</clipPath>
<clipPath id="clip8">
  <path d="M 3270.257813 1352.921875 L 3259.65625 1201.375 L 3139.84375 1241.324219 C 3136.875 1150.113281 3134.222656 1076.355469 3155.738281 1023.546875 C 3191.191406 936.523438 3291.652344 887.972656 3291.652344 887.972656 L 3225.46875 768 C 3126.433594 802.609375 3021.496094 886.09375 2982.308594 983.261719 C 2967.828125 1019.164063 2956.195313 1074.164063 2953.621094 1188.410156 C 2953.480469 1194.71875 2953.472656 1201.40625 2953.433594 1208 L 2952.171875 1208.136719 C 2952.171875 1208.136719 2952.710938 1224.84375 2953.699219 1251.734375 C 2954.113281 1272.847656 2954.84375 1294.160156 2955.71875 1314.347656 L 2957.007813 1334.964844 C 2959.691406 1397.695313 2963.375 1473.1875 2967.757813 1535.84375 C 2975.726563 1649.824219 2985.179688 1779.035156 2986.238281 1794.128906 C 2986.839844 1802.746094 2987.347656 1811.484375 2987.777344 1820.257813 L 2987.777344 1820.292969 C 2987.777344 1967.234375 2991.035156 2019.789063 2889.9375 2146.125 C 2895.40625 2149.863281 2899.84375 2152.898438 2903.488281 2155.390625 C 2903.382813 2155.527344 2903.28125 2155.65625 2903.167969 2155.789063 L 3025.722656 2235 C 3095.945313 2166.984375 3152.601563 2070.820313 3169.035156 1935.128906 C 3170.027344 1918.332031 3170.789063 1899.964844 3171.246094 1879.644531 C 3173.34375 1786.753906 3150.851563 1467.050781 3147.695313 1422.765625 C 3149.445313 1420.183594 3150.414063 1417.527344 3150.238281 1414.773438 Z M 3270.257813 1352.921875 "/>
</clipPath>
<clipPath id="clip9">
  <path d="M 1894 1221 L 2768 1221 L 2768 2049 L 1894 2049 Z M 1894 1221 "/>
</clipPath>
<clipPath id="clip10">
  <path d="M 2308.554688 1855.800781 C 2186.695313 1855.800781 2087.558594 1756.753906 2087.558594 1635.003906 C 2087.558594 1513.253906 2186.695313 1414.203125 2308.554688 1414.203125 C 2430.410156 1414.203125 2544.28125 1487.800781 2544.28125 1635.003906 C 2544.28125 1782.195313 2430.410156 1855.800781 2308.554688 1855.800781 M 2737.640625 1853.449219 C 2723.644531 1802.882813 2722.230469 1697.476563 2722.230469 1642.277344 L 2722.230469 1255.597656 C 2672.109375 1272.132813 2622.886719 1297.316406 2577.453125 1322.617188 C 2506.238281 1259.410156 2412.777344 1221 2309.015625 1221 C 2080.535156 1221 1894.648438 1406.722656 1894.648438 1635.003906 C 1894.648438 1863.28125 2080.535156 2049 2309.015625 2049 C 2397.832031 2049 2479.140625 2020.882813 2545.386719 1973.15625 C 2549.121094 1970.46875 2565.652344 1955.632813 2565.660156 1955.625 L 2565.664063 1955.621094 C 2585.175781 1974.058594 2621.855469 2007.78125 2662.03125 2026.199219 L 2767.027344 1917.851563 C 2767.027344 1917.851563 2749.855469 1897.570313 2737.640625 1853.449219 "/>
</clipPath>
<clipPath id="clip11">
  <path d="M 404 1221 L 1278 1221 L 1278 2049 L 404 2049 Z M 404 1221 "/>
</clipPath>
<clipPath id="clip12">
  <path d="M 818.617188 1855.800781 C 696.757813 1855.800781 597.621094 1756.753906 597.621094 1635.003906 C 597.621094 1513.253906 696.757813 1414.203125 818.617188 1414.203125 C 940.476563 1414.203125 1054.34375 1487.800781 1054.34375 1635.003906 C 1054.34375 1782.195313 940.476563 1855.800781 818.617188 1855.800781 M 1247.710938 1853.449219 C 1233.707031 1802.882813 1232.292969 1697.476563 1232.292969 1642.277344 L 1232.292969 1255.597656 C 1182.175781 1272.132813 1132.949219 1297.316406 1087.519531 1322.617188 C 1016.300781 1259.410156 922.839844 1221 819.078125 1221 C 590.601563 1221 404.714844 1406.722656 404.714844 1635.003906 C 404.714844 1863.28125 590.601563 2049 819.078125 2049 C 907.898438 2049 989.207031 2020.882813 1055.449219 1973.15625 C 1059.183594 1970.46875 1075.71875 1955.632813 1075.726563 1955.625 L 1075.730469 1955.621094 C 1095.238281 1974.058594 1131.917969 2007.78125 1172.097656 2026.199219 L 1277.089844 1917.851563 C 1277.089844 1917.851563 1259.917969 1897.570313 1247.710938 1853.449219 "/>
</clipPath>
</defs>
<g id="surface1">
<g clip-path="url(#clip1)" clip-rule="nonzero">
<g clip-path="url(#clip2)" clip-rule="evenodd">
<path style=" stroke:none;fill-rule:nonzero;fill:rgb(13.33313%,79.216003%,27.450562%);fill-opacity:1;" d="M 3357.59375 2067 L 4218 2067 L 4218 1209 L 3357.59375 1209 Z M 3357.59375 2067 "/>
</g>
</g>
<g clip-path="url(#clip3)" clip-rule="nonzero">
<g clip-path="url(#clip4)" clip-rule="evenodd">
<path style=" stroke:none;fill-rule:nonzero;fill:rgb(13.33313%,79.216003%,27.450562%);fill-opacity:1;" d="M 1465.945313 2238 L 1831.703125 2238 L 1831.703125 897 L 1465.945313 897 Z M 1465.945313 2238 "/>
</g>
</g>
<g clip-path="url(#clip5)" clip-rule="nonzero">
<g clip-path="url(#clip6)" clip-rule="evenodd">
<path style=" stroke:none;fill-rule:nonzero;fill:rgb(13.33313%,79.216003%,27.450562%);fill-opacity:1;" d="M -12 2238 L 353.761719 2238 L 353.761719 897 L -12 897 Z M -12 2238 "/>
</g>
</g>
<g clip-path="url(#clip7)" clip-rule="nonzero">
<g clip-path="url(#clip8)" clip-rule="evenodd">
<path style=" stroke:none;fill-rule:nonzero;fill:rgb(13.33313%,79.216003%,27.450562%);fill-opacity:1;" d="M 2874.9375 2250 L 3306.652344 2250 L 3306.652344 753 L 2874.9375 753 Z M 2874.9375 2250 "/>
</g>
</g>
<g clip-path="url(#clip9)" clip-rule="nonzero">
<g clip-path="url(#clip10)" clip-rule="evenodd">
<path style=" stroke:none;fill-rule:nonzero;fill:rgb(13.33313%,79.216003%,27.450562%);fill-opacity:1;" d="M 1879.648438 2064 L 2782.027344 2064 L 2782.027344 1206 L 1879.648438 1206 Z M 1879.648438 2064 "/>
</g>
</g>
<g clip-path="url(#clip11)" clip-rule="nonzero">
<g clip-path="url(#clip12)" clip-rule="evenodd">
<path style=" stroke:none;fill-rule:nonzero;fill:rgb(13.33313%,79.216003%,27.450562%);fill-opacity:1;" d="M 389.714844 2064 L 1292.089844 2064 L 1292.089844 1206 L 389.714844 1206 Z M 389.714844 2064 "/>
</g>
</g>
</g>
</svg>
