<?xml version="1.0" encoding="UTF-8" standalone="no"?>
<svg
   xmlns:dc="http://purl.org/dc/elements/1.1/"
   xmlns:cc="http://creativecommons.org/ns#"
   xmlns:rdf="http://www.w3.org/1999/02/22-rdf-syntax-ns#"
   xmlns:svg="http://www.w3.org/2000/svg"
   xmlns="http://www.w3.org/2000/svg"
   xmlns:xlink="http://www.w3.org/1999/xlink"
   viewBox="0 0 595.27557 1417.3228"
   id="svg96"
   height="1417.3228"
   width="595.27557"
   version="1.1">
  <metadata
     id="metadata100">
    <rdf:RDF>
      <cc:Work
         rdf:about="">
        <dc:format>image/svg+xml</dc:format>
        <dc:type
           rdf:resource="http://purl.org/dc/dcmitype/StillImage" />
      </cc:Work>
    </rdf:RDF>
  </metadata>
  <path
     id="path2"
     style="fill:#1b1918;fill-rule:evenodd;stroke:#1b1918;stroke-width:0.56690001;stroke-linecap:butt;stroke-linejoin:miter;stroke-dasharray:none"
     d="M 87.8488,422.8963 V 786.5311 H 491.0491 V 422.8963 Z" />
  <path
     id="path4"
     style="fill:#1b1918;fill-rule:evenodd;stroke:#1b1918;stroke-width:0.56690001;stroke-linecap:butt;stroke-linejoin:miter;stroke-dasharray:none"
     d="m 45.4915,1100.3457 v 225.2678 h 496.5579 v -225.2678 z" />
  <defs
     id="defs12">
    <linearGradient
       id="grad1">
      <stop
         id="stop6"
         stop-opacity="1.0000"
         stop-color="#009846"
         offset="0%" />
      <stop
         id="stop8"
         stop-opacity="1.0000"
         stop-color="#ffffff"
         offset="100%" />
    </linearGradient>
    <linearGradient
       gradientUnits="objectBoundingBox"
       gradientTransform="rotate(-173,0.5,0.5)"
       y2="1"
       x2="0"
       y1="0"
       x1="0"
       id="grad2"
       xlink:href="#grad1" />
  </defs>
  <path
     id="path14"
     style="fill:url(#grad2)"
     d="m 77.2234,1036.2977 126.7449,-141.1139 37.2063,50.2172 94.8186,-69.1386 -111.2214,152.3747 -41.2984,-56.7495 z" />
  <path
     id="path16"
     style="fill:#1b1918;fill-rule:evenodd"
     d="m 282.1442,998.4896 h -17.633 L 231.9977,956.854 v 41.6356 h -17.6325 v -67.9827 h 17.6325 l 32.5135,41.585 v -41.585 h 17.633 z" />
  <path
     id="path18"
     style="fill:#1b1918;fill-rule:evenodd"
     d="M 304.887,998.4896 H 287.2541 V 930.5069 H 304.887 Z" />
  <path
     id="path20"
     style="fill:#1b1918;fill-rule:evenodd"
     d="m 356.2667,945.1847 h -14.6773 v 53.3049 H 323.957 v -53.3049 h -14.3711 v -14.6778 h 46.6808 z" />
  <path
     id="path22"
     style="fill:#1b1918;fill-rule:evenodd"
     d="m 417.1931,998.4896 h -21.9133 l -16.8173,-25.9897 v 25.9897 h -17.633 v -67.9827 h 27.4513 c 8.035,0 13.9635,2.4127 17.8196,7.2365 3.1088,3.8908 4.6718,8.4596 4.6718,13.7096 0,6.0299 -1.7838,10.8371 -5.3684,14.4217 -2.2932,2.2928 -5.4527,3.8903 -9.4614,4.7902 z m -24.7676,-46.0519 c 0,-2.4287 -0.8834,-4.468 -2.6496,-6.1323 -1.6477,-1.5629 -4.3319,-2.3439 -8.0179,-2.3439 h -3.2955 v 17.0207 h 3.2955 c 3.7201,0 6.4038,-0.781 8.0179,-2.3439 1.7662,-1.699 2.6496,-3.7709 2.6496,-6.2006 z" />
  <path
     id="path24"
     style="fill:#1b1918;fill-rule:evenodd"
     d="m 487.7209,964.7199 c 0,9.2406 -3.0747,17.3433 -9.207,24.3083 -6.999,7.9331 -16.4775,11.9077 -28.4194,11.9077 -11.9253,0 -21.3867,-3.9746 -28.3858,-11.9077 -6.1323,-6.965 -9.207,-15.0677 -9.207,-24.3083 0,-4.213 0.8322,-8.5279 2.497,-12.9618 1.6478,-4.4333 3.8732,-8.2388 6.6593,-11.3812 6.9986,-7.9331 16.4776,-11.9077 28.4365,-11.9077 11.9419,0 21.4204,3.9746 28.4194,11.9077 6.1323,6.9645 9.207,15.0843 9.207,24.343 z m -18.3462,0 c 0,-4.7912 -1.5288,-8.9355 -4.5864,-12.4348 -3.9239,-4.4679 -8.8165,-6.6929 -14.6938,-6.6929 -4.0599,0 -7.7293,1.1378 -11.0249,3.4145 -3.2784,2.2927 -5.6228,5.3337 -7.0327,9.1216 -0.7985,2.1743 -1.189,4.3656 -1.189,6.5916 0,4.6029 1.5288,8.7136 4.5864,12.3489 3.7884,4.5016 8.6634,6.7446 14.6602,6.7446 5.9792,0 10.8718,-2.2255 14.6938,-6.6929 3.0576,-3.5676 4.5864,-7.6953 4.5864,-12.4006 z" />
  <path
     id="path26"
     style="fill:#1b1918;fill-rule:evenodd"
     d="m 221.5982,1009.3478 h -2.3901 v -1.1543 h 3.673 v 5.0652 c -0.1094,0.055 -0.27,0.1149 -0.4813,0.1762 -0.2108,0.058 -0.4518,0.1149 -0.7243,0.1681 -0.27,0.051 -0.5611,0.093 -0.8713,0.1235 -0.3127,0.032 -0.6173,0.048 -0.922,0.048 -0.8954,0 -1.6894,-0.1235 -2.3735,-0.3694 -0.6871,-0.246 -1.2618,-0.5928 -1.7266,-1.042 -0.4652,-0.4492 -0.8156,-0.9948 -1.056,-1.6357 -0.2404,-0.6414 -0.3609,-1.3577 -0.3609,-2.1467 0,-0.8582 0.131,-1.6357 0.393,-2.3363 0.2645,-0.6977 0.644,-1.296 1.1439,-1.7933 0.4999,-0.4944 1.1012,-0.8769 1.8099,-1.1469 0.7051,-0.27 1.4856,-0.403 2.3358,-0.403 0.2299,0 0.4598,0.01 0.6896,0.026 0.2299,0.019 0.4488,0.046 0.6575,0.078 0.2083,0.034 0.4036,0.075 0.5802,0.1194 0.1762,0.048 0.3258,0.096 0.4462,0.1476 v 1.1202 c -0.3126,-0.1 -0.6735,-0.1852 -1.0801,-0.2519 -0.4085,-0.067 -0.8151,-0.1009 -1.2216,-0.1009 -0.5958,0 -1.1624,0.091 -1.7025,0.269 -0.5425,0.1797 -1.0183,0.4522 -1.4299,0.8181 -0.4116,0.3669 -0.7403,0.8231 -0.9862,1.3742 -0.246,0.5506 -0.3689,1.1971 -0.3689,1.9374 0,0.7247 0.1018,1.3531 0.3051,1.8791 0.2028,0.527 0.4914,0.9622 0.8633,1.3075 0.3739,0.3443 0.8256,0.5988 1.3546,0.7644 0.5326,0.1626 1.1228,0.2459 1.7723,0.2459 0.2991,0 0.5962,-0.017 0.8904,-0.048 0.2941,-0.03 0.5531,-0.075 0.7804,-0.131 z m 5.1476,-0.096 v 4.3294 h -1.2829 v -10.4722 h 2.7183 c 0.4598,0 0.8502,0.016 1.171,0.052 0.3207,0.034 0.6143,0.088 0.8793,0.1601 0.7323,0.1977 1.2909,0.537 1.6759,1.0153 0.3874,0.4753 0.5797,1.0746 0.5797,1.7888 0,0.4241 -0.0668,0.8016 -0.2033,1.1358 -0.136,0.3338 -0.3257,0.6254 -0.5717,0.8713 -0.2459,0.2455 -0.54,0.4462 -0.8818,0.6013 -0.3423,0.1576 -0.7218,0.2726 -1.1388,0.3448 v 0.032 l 3.1007,4.4715 h -1.2833 l -3.2233,-4.3294 z m 0,-4.9875 v 3.8321 h 1.2618 c 0.3904,0 0.7242,-0.013 1.0023,-0.04 0.2755,-0.024 0.524,-0.072 0.7428,-0.1385 0.4442,-0.1365 0.786,-0.3528 1.0264,-0.6494 0.2409,-0.2967 0.3609,-0.6872 0.3609,-1.1655 -0.006,-0.4492 -0.12,-0.8095 -0.3449,-1.0846 -0.2243,-0.2735 -0.5345,-0.4708 -0.9325,-0.5912 -0.1872,-0.056 -0.4116,-0.098 -0.6736,-0.1225 -0.2594,-0.027 -0.5907,-0.04 -0.9942,-0.04 z m 9.4915,8.1625 h 5.3724 v 1.1544 h -6.6558 v -10.4722 h 6.3642 v 1.1553 h -5.0808 v 3.3834 h 4.5197 v 1.1549 h -4.5197 z m 8.8416,0 h 5.3724 v 1.1544 h -6.6558 v -10.4722 h 6.3642 v 1.1553 h -5.0808 v 3.3834 h 4.5197 v 1.1549 h -4.5197 z m 12.9366,-3.4802 c 0.641,0.925 1.2749,1.8741 1.9028,2.8493 h 0.0456 c -0.0667,-1.0158 -0.1014,-2.0553 -0.1014,-3.1138 v -5.5731 h 1.2909 v 10.4722 h -1.2833 l -4.1051,-5.8371 c -0.7087,-1.0179 -1.3421,-1.967 -1.8977,-2.8499 h -0.0482 c 0.0667,0.9552 0.1014,2.0694 0.1014,3.3412 v 5.3458 h -1.2829 v -10.4722 h 1.2668 z m 10.2821,3.4802 h 5.3729 v 1.1544 h -6.6558 v -10.4722 h 6.3642 v 1.1553 h -5.0813 v 3.3834 h 4.5201 v 1.1549 h -4.5201 z m 12.9366,-3.4802 c 0.6414,0.925 1.2748,1.8741 1.9032,2.8493 h 0.0452 c -0.0667,-1.0158 -0.1014,-2.0553 -0.1014,-3.1138 v -5.5731 h 1.2909 v 10.4722 h -1.2828 l -4.1056,-5.8371 c -0.7082,-1.0179 -1.3416,-1.967 -1.8977,-2.8499 h -0.0482 c 0.0672,0.9552 0.1019,2.0694 0.1019,3.3412 v 5.3458 h -1.2834 v -10.4722 h 1.2673 z m 7.0724,3.4802 h 5.3724 v 1.1544 h -6.6553 v -10.4722 h 6.3642 v 1.1553 h -5.0813 v 3.3834 h 4.5196 v 1.1549 h -4.5196 z m 8.8415,-3.175 v 4.3294 h -1.2828 v -10.4722 h 2.7183 c 0.4597,0 0.8502,0.016 1.1709,0.052 0.3208,0.034 0.6144,0.088 0.8794,0.1601 0.7323,0.1977 1.2909,0.537 1.6758,1.0153 0.3875,0.4753 0.5797,1.0746 0.5797,1.7888 0,0.4241 -0.0667,0.8016 -0.2027,1.1358 -0.1365,0.3338 -0.3263,0.6254 -0.5722,0.8713 -0.2459,0.2455 -0.5395,0.4462 -0.8818,0.6013 -0.3423,0.1576 -0.7218,0.2726 -1.1389,0.3448 v 0.032 l 3.1008,4.4715 h -1.2834 l -3.2232,-4.3294 z m 0,-4.9875 v 3.8321 h 1.2618 c 0.3905,0 0.7243,-0.013 1.0023,-0.04 0.2756,-0.024 0.524,-0.072 0.7429,-0.1385 0.4442,-0.1365 0.786,-0.3528 1.0269,-0.6494 0.2404,-0.2967 0.3603,-0.6872 0.3603,-1.1655 -0.005,-0.4492 -0.1199,-0.8095 -0.3448,-1.0846 -0.2243,-0.2735 -0.5345,-0.4708 -0.9325,-0.5912 -0.1872,-0.056 -0.4116,-0.098 -0.6736,-0.1225 -0.2595,-0.027 -0.5907,-0.04 -0.9943,-0.04 z m 15.0562,5.0833 h -2.3895 v -1.1543 h 3.6729 v 5.0652 c -0.1099,0.055 -0.2705,0.1149 -0.4813,0.1762 -0.2113,0.058 -0.4517,0.1149 -0.7243,0.1681 -0.27,0.051 -0.5616,0.093 -0.8713,0.1235 -0.3132,0.032 -0.6178,0.048 -0.9225,0.048 -0.8954,0 -1.6894,-0.1235 -2.3735,-0.3694 -0.6866,-0.246 -1.2613,-0.5928 -1.7266,-1.042 -0.4652,-0.4492 -0.8151,-0.9948 -1.0555,-1.6357 -0.2409,-0.6414 -0.3608,-1.3577 -0.3608,-2.1467 0,-0.8582 0.131,-1.6357 0.3924,-2.3363 0.2651,-0.6977 0.6445,-1.296 1.1444,-1.7933 0.4999,-0.4944 1.1012,-0.8769 1.8094,-1.1469 0.7056,-0.27 1.4861,-0.403 2.3363,-0.403 0.2294,0 0.4593,0.01 0.6897,0.026 0.2293,0.019 0.4487,0.046 0.657,0.078 0.2087,0.034 0.404,0.075 0.5802,0.1194 0.1766,0.048 0.3262,0.096 0.4462,0.1476 v 1.1202 c -0.3122,-0.1 -0.6736,-0.1852 -1.0796,-0.2519 -0.4091,-0.067 -0.8151,-0.1009 -1.2217,-0.1009 -0.5957,0 -1.1624,0.091 -1.7025,0.269 -0.5425,0.1797 -1.0183,0.4522 -1.4299,0.8181 -0.4115,0.3669 -0.7403,0.8231 -0.9862,1.3742 -0.246,0.5506 -0.3689,1.1971 -0.3689,1.9374 0,0.7247 0.1014,1.3531 0.3046,1.8791 0.2033,0.527 0.4919,0.9622 0.8633,1.3075 0.3739,0.3443 0.8261,0.5988 1.3552,0.7644 0.532,0.1626 1.1227,0.2459 1.7722,0.2459 0.2991,0 0.5962,-0.017 0.8899,-0.048 0.2941,-0.03 0.5536,-0.075 0.7804,-0.131 z m 7.9387,0.024 v 4.2095 h -1.2829 v -4.2095 l -3.8145,-6.2627 h 1.3953 l 3.0416,5.0898 h 0.0376 l 3.0416,-5.0898 h 1.3953 z" />
  <g
     id="Layer1000">
    <defs
       id="defs34">
      <linearGradient
         id="grad3">
        <stop
           id="stop28"
           stop-opacity="1.0000"
           stop-color="#009846"
           offset="0%" />
        <stop
           id="stop30"
           stop-opacity="1.0000"
           stop-color="#ffffff"
           offset="100%" />
      </linearGradient>
      <linearGradient
         gradientUnits="objectBoundingBox"
         gradientTransform="rotate(-173,0.5,0.5)"
         y2="1"
         x2="0"
         y1="0"
         x1="0"
         id="grad4"
         xlink:href="#grad3" />
    </defs>
    <path
       id="path36"
       style="fill:url(#grad4)"
       d="m 88.5217,1292.9973 126.7449,-141.114 37.2063,50.2172 94.8186,-69.1385 -111.2214,152.3747 -41.2983,-56.7496 z" />
    <path
       id="path38"
       style="fill:#ffffff;fill-rule:evenodd"
       d="m 293.4425,1255.1892 h -17.633 l -32.5135,-41.6357 v 41.6357 h -17.6324 v -67.9827 h 17.6324 l 32.5135,41.5849 v -41.5849 h 17.633 z" />
    <path
       id="path40"
       style="fill:#ffffff;fill-rule:evenodd"
       d="m 316.1854,1255.1892 h -17.633 v -67.9827 h 17.633 z" />
    <path
       id="path42"
       style="fill:#ffffff;fill-rule:evenodd"
       d="m 367.565,1201.8842 h -14.6772 v 53.305 h -17.6325 v -53.305 h -14.3711 v -14.6777 h 46.6808 z" />
    <path
       id="path44"
       style="fill:#ffffff;fill-rule:evenodd"
       d="m 428.4914,1255.1892 h -21.9132 l -16.8174,-25.9897 v 25.9897 h -17.633 v -67.9827 h 27.4513 c 8.035,0 13.9635,2.4126 17.8197,7.2365 3.1088,3.8907 4.6717,8.4596 4.6717,13.7095 0,6.0299 -1.7838,10.8372 -5.3684,14.4218 -2.2932,2.2927 -5.4527,3.8903 -9.4614,4.7902 z m -24.7676,-46.0519 c 0,-2.4288 -0.8833,-4.468 -2.6495,-6.1323 -1.6478,-1.563 -4.332,-2.3439 -8.018,-2.3439 h -3.2955 v 17.0206 h 3.2955 c 3.7201,0 6.4038,-0.7809 8.018,-2.3439 1.7662,-1.6989 2.6495,-3.7708 2.6495,-6.2005 z" />
    <path
       id="path46"
       style="fill:#ffffff;fill-rule:evenodd"
       d="m 499.0192,1221.4194 c 0,9.2406 -3.0746,17.3434 -9.2069,24.3083 -6.9991,7.9332 -16.4776,11.9078 -28.4195,11.9078 -11.9252,0 -21.3867,-3.9746 -28.3858,-11.9078 -6.1323,-6.9649 -9.2069,-15.0677 -9.2069,-24.3083 0,-4.213 0.8321,-8.5279 2.497,-12.9617 1.6477,-4.4333 3.8732,-8.2388 6.6592,-11.3812 6.9986,-7.9332 16.4776,-11.9078 28.4365,-11.9078 11.9419,0 21.4204,3.9746 28.4195,11.9078 6.1323,6.9644 9.2069,15.0843 9.2069,24.3429 z m -18.3461,0 c 0,-4.7912 -1.5288,-8.9354 -4.5865,-12.4347 -3.9239,-4.468 -8.8164,-6.6929 -14.6938,-6.6929 -4.0599,0 -7.7293,1.1378 -11.0248,3.4144 -3.2785,2.2927 -5.6229,5.3338 -7.0327,9.1217 -0.7986,2.1742 -1.1891,4.3656 -1.1891,6.5915 0,4.603 1.5289,8.7136 4.5865,12.3489 3.7884,4.5016 8.6634,6.7446 14.6601,6.7446 5.9793,0 10.8718,-2.2254 14.6938,-6.6929 3.0577,-3.5675 4.5865,-7.6952 4.5865,-12.4006 z" />
    <path
       id="path48"
       style="fill:#ffffff;fill-rule:evenodd"
       d="m 232.8965,1266.0474 h -2.39 v -1.1544 h 3.6729 v 5.0653 c -0.1094,0.055 -0.27,0.1149 -0.4813,0.1761 -0.2108,0.058 -0.4517,0.115 -0.7243,0.1682 -0.27,0.051 -0.5611,0.093 -0.8713,0.1234 -0.3127,0.032 -0.6173,0.048 -0.922,0.048 -0.8954,0 -1.6894,-0.1234 -2.3735,-0.3694 -0.6871,-0.2459 -1.2618,-0.5927 -1.7265,-1.0419 -0.4653,-0.4492 -0.8156,-0.9948 -1.0561,-1.6358 -0.2404,-0.6414 -0.3608,-1.3576 -0.3608,-2.1466 0,-0.8583 0.131,-1.6357 0.393,-2.3364 0.2645,-0.6976 0.6439,-1.2959 1.1438,-1.7933 0.4999,-0.4944 1.1012,-0.8768 1.8099,-1.1468 0.7052,-0.2701 1.4856,-0.4031 2.3359,-0.4031 0.2298,0 0.4597,0.01 0.6896,0.026 0.2299,0.019 0.4487,0.046 0.6575,0.078 0.2083,0.034 0.4035,0.075 0.5802,0.1195 0.1761,0.048 0.3257,0.096 0.4462,0.1475 v 1.1203 c -0.3127,-0.1 -0.6736,-0.1852 -1.0801,-0.252 -0.4086,-0.067 -0.8151,-0.1008 -1.2217,-0.1008 -0.5957,0 -1.1624,0.091 -1.7024,0.269 -0.5426,0.1797 -1.0184,0.4522 -1.43,0.8181 -0.4115,0.3669 -0.7403,0.8231 -0.9862,1.3742 -0.2459,0.5506 -0.3689,1.197 -0.3689,1.9374 0,0.7247 0.1019,1.3531 0.3051,1.8791 0.2028,0.527 0.4914,0.9621 0.8633,1.3075 0.3739,0.3443 0.8257,0.5987 1.3547,0.7644 0.5325,0.1626 1.1227,0.2459 1.7722,0.2459 0.2991,0 0.5963,-0.017 0.8904,-0.048 0.2941,-0.03 0.5531,-0.075 0.7804,-0.131 z m 5.1476,-0.096 v 4.3295 h -1.2829 v -10.4723 h 2.7183 c 0.4598,0 0.8503,0.016 1.171,0.052 0.3207,0.034 0.6143,0.088 0.8793,0.1601 0.7323,0.1978 1.2909,0.5371 1.6759,1.0154 0.3875,0.4753 0.5797,1.0746 0.5797,1.7888 0,0.4241 -0.0668,0.8015 -0.2033,1.1358 -0.136,0.3337 -0.3257,0.6254 -0.5716,0.8713 -0.246,0.2454 -0.5401,0.4462 -0.8819,0.6013 -0.3423,0.1576 -0.7217,0.2725 -1.1388,0.3448 v 0.032 l 3.1008,4.4715 h -1.2834 l -3.2233,-4.3295 z m 0,-4.9874 v 3.8321 h 1.2618 c 0.3905,0 0.7242,-0.013 1.0023,-0.04 0.2755,-0.024 0.524,-0.072 0.7428,-0.1385 0.4442,-0.1365 0.786,-0.3529 1.0264,-0.6495 0.2409,-0.2966 0.3609,-0.6871 0.3609,-1.1654 -0.006,-0.4492 -0.12,-0.8096 -0.3448,-1.0846 -0.2244,-0.2736 -0.5346,-0.4708 -0.9326,-0.5913 -0.1872,-0.056 -0.4115,-0.098 -0.6735,-0.1224 -0.2595,-0.027 -0.5908,-0.04 -0.9943,-0.04 z m 9.4915,8.1625 h 5.3724 v 1.1544 h -6.6557 v -10.4723 h 6.3641 v 1.1554 h -5.0808 v 3.3834 h 4.5197 v 1.1548 h -4.5197 z m 8.8416,0 h 5.3724 v 1.1544 h -6.6558 v -10.4723 h 6.3642 v 1.1554 h -5.0808 v 3.3834 h 4.5197 v 1.1548 h -4.5197 z m 12.9367,-3.4802 c 0.6409,0.925 1.2748,1.8741 1.9027,2.8493 h 0.0457 c -0.0668,-1.0159 -0.1014,-2.0553 -0.1014,-3.1138 v -5.5732 h 1.2909 v 10.4723 h -1.2834 l -4.1051,-5.8372 c -0.7087,-1.0178 -1.3421,-1.967 -1.8977,-2.8498 h -0.0482 c 0.0668,0.9551 0.1014,2.0694 0.1014,3.3412 v 5.3458 h -1.2829 v -10.4723 h 1.2668 z m 10.282,3.4802 h 5.3729 v 1.1544 h -6.6558 v -10.4723 h 6.3642 v 1.1554 h -5.0813 v 3.3834 h 4.5202 v 1.1548 h -4.5202 z m 12.9366,-3.4802 c 0.6415,0.925 1.2749,1.8741 1.9033,2.8493 h 0.0451 c -0.0667,-1.0159 -0.1013,-2.0553 -0.1013,-3.1138 v -5.5732 h 1.2909 v 10.4723 h -1.2829 l -4.1056,-5.8372 c -0.7082,-1.0178 -1.3416,-1.967 -1.8977,-2.8498 h -0.0482 c 0.0673,0.9551 0.1019,2.0694 0.1019,3.3412 v 5.3458 h -1.2834 v -10.4723 h 1.2673 z m 7.0724,3.4802 h 5.3724 v 1.1544 h -6.6553 v -10.4723 h 6.3642 v 1.1554 h -5.0813 v 3.3834 h 4.5197 v 1.1548 h -4.5197 z m 8.8416,-3.1751 v 4.3295 h -1.2829 v -10.4723 h 2.7183 c 0.4598,0 0.8503,0.016 1.171,0.052 0.3207,0.034 0.6143,0.088 0.8793,0.1601 0.7323,0.1978 1.2909,0.5371 1.6759,1.0154 0.3875,0.4753 0.5797,1.0746 0.5797,1.7888 0,0.4241 -0.0668,0.8015 -0.2028,1.1358 -0.1365,0.3337 -0.3262,0.6254 -0.5722,0.8713 -0.2459,0.2454 -0.5395,0.4462 -0.8818,0.6013 -0.3423,0.1576 -0.7218,0.2725 -1.1388,0.3448 v 0.032 l 3.1007,4.4715 h -1.2833 l -3.2233,-4.3295 z m 0,-4.9874 v 3.8321 h 1.2618 c 0.3905,0 0.7242,-0.013 1.0023,-0.04 0.2755,-0.024 0.524,-0.072 0.7428,-0.1385 0.4442,-0.1365 0.786,-0.3529 1.0269,-0.6495 0.2404,-0.2966 0.3604,-0.6871 0.3604,-1.1654 -0.005,-0.4492 -0.12,-0.8096 -0.3448,-1.0846 -0.2244,-0.2736 -0.5346,-0.4708 -0.9326,-0.5913 -0.1872,-0.056 -0.4115,-0.098 -0.6735,-0.1224 -0.2595,-0.027 -0.5908,-0.04 -0.9943,-0.04 z m 15.0562,5.0833 h -2.3896 v -1.1544 h 3.6729 v 5.0653 c -0.1099,0.055 -0.2705,0.1149 -0.4813,0.1761 -0.2113,0.058 -0.4517,0.115 -0.7242,0.1682 -0.2701,0.051 -0.5617,0.093 -0.8714,0.1234 -0.3131,0.032 -0.6178,0.048 -0.9225,0.048 -0.8954,0 -1.6894,-0.1234 -2.3735,-0.3694 -0.6866,-0.2459 -1.2613,-0.5927 -1.7265,-1.0419 -0.4653,-0.4492 -0.8151,-0.9948 -1.0555,-1.6358 -0.241,-0.6414 -0.3609,-1.3576 -0.3609,-2.1466 0,-0.8583 0.131,-1.6357 0.3925,-2.3364 0.265,-0.6976 0.6444,-1.2959 1.1443,-1.7933 0.4999,-0.4944 1.1012,-0.8768 1.8094,-1.1468 0.7057,-0.2701 1.4861,-0.4031 2.3364,-0.4031 0.2293,0 0.4592,0.01 0.6896,0.026 0.2294,0.019 0.4487,0.046 0.657,0.078 0.2088,0.034 0.404,0.075 0.5802,0.1195 0.1767,0.048 0.3262,0.096 0.4462,0.1475 v 1.1203 c -0.3122,-0.1 -0.6736,-0.1852 -1.0796,-0.252 -0.4091,-0.067 -0.8151,-0.1008 -1.2217,-0.1008 -0.5957,0 -1.1624,0.091 -1.7024,0.269 -0.5426,0.1797 -1.0184,0.4522 -1.43,0.8181 -0.4115,0.3669 -0.7403,0.8231 -0.9862,1.3742 -0.2459,0.5506 -0.3689,1.197 -0.3689,1.9374 0,0.7247 0.1014,1.3531 0.3047,1.8791 0.2032,0.527 0.4918,0.9621 0.8632,1.3075 0.374,0.3443 0.8262,0.5987 1.3552,0.7644 0.532,0.1626 1.1227,0.2459 1.7722,0.2459 0.2991,0 0.5963,-0.017 0.8899,-0.048 0.2941,-0.03 0.5536,-0.075 0.7805,-0.131 z m 7.9386,0.024 v 4.2095 h -1.2829 v -4.2095 l -3.8145,-6.2628 h 1.3953 l 3.0416,5.0898 h 0.0376 l 3.0416,-5.0898 h 1.3953 z" />
  </g>
  <g
     id="Layer1001">
    <path
       id="path51"
       style="fill:#b0cb1f;fill-rule:evenodd"
       d="m 219.0383,735.836 h -4.0496 v -1.9599 h 6.2239 v 8.599 c -0.1854,0.0964 -0.458,0.1969 -0.8156,0.3004 -0.3577,0.0995 -0.765,0.1949 -1.227,0.2853 -0.4579,0.0872 -0.9513,0.1583 -1.4772,0.208 -0.5299,0.0548 -1.0466,0.0833 -1.5633,0.0833 -1.5167,0 -2.8622,-0.2091 -4.0223,-0.6263 -1.1631,-0.4172 -2.1378,-1.0069 -2.926,-1.7711 -0.7883,-0.7623 -1.382,-1.688 -1.7893,-2.7761 -0.4073,-1.089 -0.6109,-2.306 -0.6109,-3.6448 0,-1.4565 0.2219,-2.776 0.6656,-3.9656 0.4489,-1.1845 1.0912,-2.2005 1.9382,-3.0449 0.847,-0.8394 1.8663,-1.488 3.0669,-1.9468 1.1966,-0.4588 2.5187,-0.6851 3.9595,-0.6851 0.389,0 0.7791,0.0142 1.1682,0.0457 0.39,0.0314 0.7609,0.0761 1.1145,0.1309 0.3535,0.0599 0.6838,0.1279 0.9827,0.204 0.2999,0.0832 0.5532,0.1634 0.7569,0.2497 v 1.9021 c -0.5299,-0.1675 -1.1419,-0.3126 -1.8298,-0.4273 -0.693,-0.1127 -1.382,-0.1726 -2.0709,-0.1726 -1.0092,0 -1.9697,0.1543 -2.8845,0.4588 -0.92,0.3035 -1.7265,0.7673 -2.4236,1.3885 -0.698,0.6212 -1.2553,1.3987 -1.6717,2.3325 -0.4164,0.9358 -0.6251,2.033 -0.6251,3.2896 0,1.2311 0.1722,2.2959 0.5167,3.1911 0.3435,0.8942 0.8328,1.6331 1.463,2.2177 0.6333,0.5867 1.3992,1.0181 2.2959,1.2992 0.9017,0.2771 1.9027,0.4182 3.004,0.4182 0.5066,0 1.0102,-0.0294 1.5076,-0.0822 0.4985,-0.0507 0.9382,-0.1269 1.3232,-0.2233 z m 8.7245,-0.1624 v 7.3516 h -2.1743 v -17.7806 h 4.6069 c 0.7791,0 1.4407,0.0274 1.9838,0.0863 0.543,0.0599 1.0415,0.1492 1.4904,0.272 1.2411,0.336 2.1884,0.9125 2.8399,1.7245 0.6575,0.8089 0.9828,1.8259 0.9828,3.0368 0,0.7207 -0.1125,1.3621 -0.3445,1.9275 -0.23,0.5674 -0.5522,1.0627 -0.9686,1.4799 -0.4174,0.4171 -0.9149,0.7592 -1.4944,1.021 -0.5806,0.268 -1.224,0.4639 -1.9301,0.5867 v 0.0538 l 5.2543,7.5921 h -2.1743 l -5.463,-7.3516 z m 0,-8.468 v 6.5081 h 2.1378 c 0.6616,0 1.2279,-0.0233 1.699,-0.069 0.4661,-0.0406 0.8876,-0.1228 1.2584,-0.2355 0.7528,-0.2324 1.3323,-0.5999 1.7396,-1.1033 0.4083,-0.5044 0.612,-1.1662 0.612,-1.9782 -0.009,-0.7623 -0.2037,-1.3753 -0.5846,-1.8412 -0.381,-0.4649 -0.9058,-0.7998 -1.5806,-1.0049 -0.3171,-0.0943 -0.6981,-0.1674 -1.1418,-0.207 -0.4397,-0.0467 -1.001,-0.069 -1.6849,-0.069 z m 16.0851,13.8587 h 9.1043 v 1.9609 h -11.2786 v -17.7806 h 10.7852 v 1.961 h -8.6109 v 5.7448 h 7.6596 v 1.961 h -7.6596 z m 14.9838,0 h 9.1054 v 1.9609 h -11.2797 v -17.7806 h 10.7852 v 1.961 h -8.6109 v 5.7448 h 7.6596 v 1.961 h -7.6596 z m 21.924,-5.9073 c 1.0872,1.5682 2.1611,3.181 3.225,4.8365 h 0.077 c -0.1125,-1.7245 -0.1713,-3.4906 -0.1713,-5.2871 v -9.4618 h 2.1875 v 17.7806 h -2.1743 l -6.9575,-9.9103 c -1.2006,-1.7306 -2.2745,-3.3404 -3.2168,-4.8375 h -0.081 c 0.1134,1.6199 0.1722,3.5109 0.1722,5.6718 v 9.076 h -2.1753 v -17.7806 h 2.148 z m 17.4266,5.9073 h 9.1044 v 1.9609 H 296.008 v -17.7806 h 10.7852 v 1.961 h -8.6109 v 5.7448 h 7.6596 v 1.961 h -7.6596 z m 21.924,-5.9073 c 1.0862,1.5682 2.1601,3.181 3.225,4.8365 h 0.077 c -0.1135,-1.7245 -0.1723,-3.4906 -0.1723,-5.2871 v -9.4618 h 2.1875 v 17.7806 h -2.1743 l -6.9575,-9.9103 c -1.2006,-1.7306 -2.2735,-3.3404 -3.2158,-4.8375 h -0.082 c 0.1134,1.6199 0.1722,3.5109 0.1722,5.6718 v 9.076 h -2.1743 v -17.7806 h 2.1469 z m 11.9848,5.9073 h 9.1054 v 1.9609 h -11.2796 v -17.7806 h 10.7862 v 1.961 h -8.612 v 5.7448 h 7.6606 v 1.961 h -7.6606 z m 14.9849,-5.3907 v 7.3516 h -2.1743 v -17.7806 h 4.6069 c 0.7791,0 1.4407,0.0274 1.9838,0.0863 0.5441,0.0599 1.0415,0.1492 1.4904,0.272 1.2411,0.336 2.1884,0.9125 2.8399,1.7245 0.6575,0.8089 0.9838,1.8259 0.9838,3.0368 0,0.7207 -0.1135,1.3621 -0.3445,1.9275 -0.231,0.5674 -0.5532,1.0627 -0.9696,1.4799 -0.4164,0.4171 -0.9149,0.7592 -1.4944,1.021 -0.5806,0.268 -1.224,0.4639 -1.9301,0.5867 v 0.0538 l 5.2543,7.5921 h -2.1743 l -5.463,-7.3516 z m 0,-8.468 v 6.5081 h 2.1378 c 0.6616,0 1.2279,-0.0233 1.6991,-0.069 0.466,-0.0406 0.8875,-0.1228 1.2593,-0.2355 0.7518,-0.2324 1.3313,-0.5999 1.7396,-1.1033 0.4073,-0.5044 0.611,-1.1662 0.611,-1.9782 -0.009,-0.7623 -0.2037,-1.3753 -0.5846,-1.8412 -0.38,-0.4649 -0.9058,-0.7998 -1.5806,-1.0049 -0.3171,-0.0943 -0.698,-0.1674 -1.1418,-0.207 -0.4387,-0.0467 -1,-0.069 -1.6849,-0.069 z m 25.5157,8.6304 h -4.0496 v -1.9599 h 6.2239 v 8.599 c -0.1854,0.0964 -0.457,0.1969 -0.8146,0.3004 -0.3587,0.0995 -0.766,0.1949 -1.228,0.2853 -0.4579,0.0872 -0.9514,0.1583 -1.4762,0.208 -0.5309,0.0548 -1.0466,0.0833 -1.5633,0.0833 -1.5177,0 -2.8632,-0.2091 -4.0223,-0.6263 -1.1641,-0.4172 -2.1388,-1.0069 -2.926,-1.7711 -0.7883,-0.7623 -1.382,-1.688 -1.7893,-2.7761 -0.4083,-1.089 -0.612,-2.306 -0.612,-3.6448 0,-1.4565 0.2219,-2.776 0.6657,-3.9656 0.4488,-1.1845 1.0922,-2.2005 1.9392,-3.0449 0.847,-0.8394 1.8663,-1.488 3.0669,-1.9468 1.1955,-0.4588 2.5177,-0.6851 3.9584,-0.6851 0.3901,0 0.7792,0.0142 1.1692,0.0457 0.3891,0.0314 0.7609,0.0761 1.1135,0.1309 0.3536,0.0599 0.6849,0.1279 0.9838,0.204 0.2989,0.0832 0.5522,0.1634 0.7558,0.2497 v 1.9021 c -0.5288,-0.1675 -1.1408,-0.3126 -1.8297,-0.4273 -0.6931,-0.1127 -1.381,-0.1726 -2.07,-0.1726 -1.0101,0 -1.9706,0.1543 -2.8855,0.4588 -0.9199,0.3035 -1.7254,0.7673 -2.4235,1.3885 -0.6981,0.6212 -1.2553,1.3987 -1.6717,2.3325 -0.4164,0.9358 -0.6251,2.033 -0.6251,3.2896 0,1.2311 0.1722,2.2959 0.5167,3.1911 0.3445,0.8942 0.8338,1.6331 1.463,2.2177 0.6342,0.5867 1.4002,1.0181 2.2969,1.2992 0.9017,0.2771 1.9017,0.4182 3.003,0.4182 0.5076,0 1.0101,-0.0294 1.5086,-0.0822 0.4985,-0.0507 0.9372,-0.1269 1.3222,-0.2233 z m 13.4539,0.0417 v 7.1475 h -2.1743 v -7.1475 l -6.464,-10.6331 h 2.3648 l 5.155,8.6416 h 0.0628 l 5.155,-8.6416 h 2.3648 z" />
    <path
       id="path53"
       style="fill:#fefefe;fill-rule:evenodd"
       d="m 239.8236,716.3614 h -15.3101 l -28.23,-36.2159 v 36.2159 h -15.3101 v -59.1345 h 15.3101 l 28.23,36.1723 v -36.1723 h 15.3101 z" />
    <path
       id="path55"
       style="fill:#fefefe;fill-rule:evenodd"
       d="m 259.5703,716.3614 h -15.3101 v -59.1345 h 15.3101 z" />
    <path
       id="path57"
       style="fill:#fefefe;fill-rule:evenodd"
       d="m 304.1803,669.9945 h -12.7427 v 46.3669 h -15.31 v -46.3669 h -12.4783 v -12.7676 h 40.531 z" />
    <path
       id="path59"
       style="fill:#fefefe;fill-rule:evenodd"
       d="m 357.08,716.3614 h -19.0263 l -14.6019,-22.6069 v 22.6069 h -15.309 v -59.1345 h 23.8349 c 6.9757,0 12.1236,2.099 15.4711,6.296 2.6991,3.384 4.0568,7.3577 4.0568,11.9231 0,5.2465 -1.5492,9.4273 -4.6616,12.5453 -1.9909,1.9945 -4.7346,3.383 -8.2149,4.1666 z m -21.5035,-40.0577 c 0,-2.1132 -0.768,-3.8854 -2.301,-5.3338 -1.4306,-1.3601 -3.7619,-2.0391 -6.9625,-2.0391 h -2.8612 v 14.8057 h 2.8612 c 3.231,0 5.5613,-0.68 6.9625,-2.0401 1.533,-1.4769 2.301,-3.2805 2.301,-5.3927 z" />
    <path
       id="path61"
       style="fill:#fefefe;fill-rule:evenodd"
       d="m 418.3162,686.9855 c 0,8.0397 -2.6687,15.0878 -7.994,21.1453 -6.076,6.8999 -14.306,10.357 -24.6748,10.357 -10.3546,0 -18.5694,-3.4571 -24.6464,-10.357 -5.3242,-6.0575 -7.9939,-13.1056 -7.9939,-21.1453 0,-3.6641 0.7224,-7.4155 2.1682,-11.2725 1.4306,-3.858 3.3627,-7.1669 5.7811,-9.9002 6.077,-6.9 14.307,-10.358 24.691,-10.358 10.3688,0 18.5988,3.458 24.6748,10.358 5.3253,6.0584 7.994,13.1208 7.994,21.1727 z m -15.9291,0 c 0,-4.1666 -1.3273,-7.7718 -3.9818,-10.8158 -3.4073,-3.8854 -7.6545,-5.8199 -12.7579,-5.8199 -3.5248,0 -6.7112,0.9886 -9.5724,2.9698 -2.847,1.9945 -4.8825,4.6385 -6.1064,7.9332 -0.693,1.8909 -1.0324,3.7981 -1.0324,5.7327 0,4.0041 1.3272,7.5799 3.9828,10.7427 3.2887,3.9148 7.5217,5.8666 12.7284,5.8666 5.1915,0 9.4388,-1.9366 12.7579,-5.823 2.6545,-3.1018 3.9818,-6.6928 3.9818,-10.7863 z" />
    <defs
       id="defs69">
      <linearGradient
         id="grad5">
        <stop
           id="stop63"
           stop-opacity="1.0000"
           stop-color="#009846"
           offset="0%" />
        <stop
           id="stop65"
           stop-opacity="1.0000"
           stop-color="#ffffff"
           offset="100%" />
      </linearGradient>
      <linearGradient
         gradientUnits="objectBoundingBox"
         gradientTransform="rotate(-173,0.5,0.5)"
         y2="1"
         x2="0"
         y1="0"
         x1="0"
         id="grad6"
         xlink:href="#grad5" />
    </defs>
    <path
       id="path71"
       style="fill:url(#grad6)"
       d="M 180.9734,607.4324 297.1043,477.6383 330.6271,522.9648 418.3172,457.5719 315.849,598.0965 278.6382,546.8729 Z" />
  </g>
  <path
     id="path74"
     style="fill:#1b1918;fill-rule:evenodd"
     d="m 219.0383,347.5341 h -4.0496 v -1.96 h 6.2239 v 8.5991 c -0.1854,0.0964 -0.458,0.1969 -0.8156,0.3004 -0.3577,0.0995 -0.765,0.1949 -1.227,0.2852 -0.4579,0.0873 -0.9513,0.1583 -1.4772,0.2081 -0.5299,0.0548 -1.0466,0.0832 -1.5633,0.0832 -1.5167,0 -2.8622,-0.2091 -4.0223,-0.6262 -1.1631,-0.4172 -2.1378,-1.0069 -2.926,-1.7712 -0.7883,-0.7623 -1.382,-1.6879 -1.7893,-2.776 -0.4073,-1.0891 -0.6109,-2.3061 -0.6109,-3.6448 0,-1.4566 0.2219,-2.776 0.6656,-3.9656 0.4489,-1.1845 1.0912,-2.2005 1.9382,-3.045 0.847,-0.8394 1.8663,-1.488 3.0669,-1.9467 1.1966,-0.4588 2.5187,-0.6852 3.9595,-0.6852 0.389,0 0.7791,0.0142 1.1682,0.0457 0.39,0.0315 0.7609,0.0761 1.1145,0.1309 0.3535,0.0599 0.6838,0.1279 0.9827,0.2041 0.2999,0.0832 0.5532,0.1634 0.7569,0.2496 v 1.9021 c -0.5299,-0.1674 -1.1419,-0.3126 -1.8298,-0.4273 -0.693,-0.1126 -1.382,-0.1725 -2.0709,-0.1725 -1.0092,0 -1.9697,0.1543 -2.8845,0.4588 -0.92,0.3034 -1.7265,0.7673 -2.4236,1.3885 -0.698,0.6211 -1.2553,1.3986 -1.6717,2.3324 -0.4164,0.9358 -0.6251,2.033 -0.6251,3.2896 0,1.2312 0.1722,2.2959 0.5167,3.1911 0.3435,0.8942 0.8328,1.6332 1.463,2.2178 0.6333,0.5867 1.3992,1.018 2.2959,1.2992 0.9017,0.2771 1.9027,0.4182 3.004,0.4182 0.5066,0 1.0102,-0.0295 1.5076,-0.0823 0.4985,-0.0507 0.9382,-0.1268 1.3232,-0.2232 z m 8.7245,-0.1624 v 7.3516 h -2.1743 v -17.7807 h 4.6069 c 0.7791,0 1.4407,0.0275 1.9838,0.0863 0.543,0.0599 1.0415,0.1492 1.4904,0.272 1.2411,0.336 2.1884,0.9125 2.8399,1.7245 0.6575,0.809 0.9828,1.826 0.9828,3.0369 0,0.7206 -0.1125,1.3621 -0.3445,1.9274 -0.23,0.5674 -0.5522,1.0627 -0.9686,1.4799 -0.4174,0.4172 -0.9149,0.7592 -1.4944,1.0211 -0.5806,0.2679 -1.224,0.4638 -1.9301,0.5866 v 0.0538 l 5.2543,7.5922 h -2.1743 l -5.463,-7.3516 z m 0,-8.4681 v 6.5081 h 2.1378 c 0.6616,0 1.2279,-0.0233 1.699,-0.069 0.4661,-0.0406 0.8876,-0.1228 1.2584,-0.2355 0.7528,-0.2324 1.3323,-0.5998 1.7396,-1.1033 0.4083,-0.5044 0.612,-1.1662 0.612,-1.9782 -0.009,-0.7622 -0.2037,-1.3753 -0.5846,-1.8412 -0.381,-0.4648 -0.9058,-0.7998 -1.5806,-1.0048 -0.3171,-0.0944 -0.6981,-0.1675 -1.1418,-0.2071 -0.4397,-0.0467 -1.001,-0.069 -1.6849,-0.069 z m 16.0851,13.8587 h 9.1043 v 1.961 h -11.2786 v -17.7807 h 10.7852 v 1.961 h -8.6109 v 5.7449 h 7.6596 v 1.9609 h -7.6596 z m 14.9838,0 h 9.1054 v 1.961 h -11.2797 v -17.7807 h 10.7852 v 1.961 h -8.6109 v 5.7449 h 7.6596 v 1.9609 h -7.6596 z m 21.924,-5.9072 c 1.0872,1.5681 2.1611,3.1809 3.225,4.8364 h 0.077 c -0.1125,-1.7245 -0.1713,-3.4906 -0.1713,-5.2871 v -9.4618 h 2.1875 v 17.7807 h -2.1743 l -6.9575,-9.9104 c -1.2006,-1.7306 -2.2745,-3.3403 -3.2168,-4.8375 h -0.081 c 0.1134,1.62 0.1722,3.5109 0.1722,5.6718 v 9.0761 h -2.1753 v -17.7807 h 2.148 z m 17.4266,5.9072 h 9.1044 v 1.961 H 296.008 v -17.7807 h 10.7852 v 1.961 h -8.6109 v 5.7449 h 7.6596 v 1.9609 h -7.6596 z m 21.924,-5.9072 c 1.0862,1.5681 2.1601,3.1809 3.225,4.8364 h 0.077 c -0.1135,-1.7245 -0.1723,-3.4906 -0.1723,-5.2871 v -9.4618 h 2.1875 v 17.7807 h -2.1743 l -6.9575,-9.9104 c -1.2006,-1.7306 -2.2735,-3.3403 -3.2158,-4.8375 h -0.082 c 0.1134,1.62 0.1722,3.5109 0.1722,5.6718 v 9.0761 h -2.1743 v -17.7807 h 2.1469 z m 11.9848,5.9072 h 9.1054 v 1.961 h -11.2796 v -17.7807 h 10.7862 v 1.961 h -8.612 v 5.7449 h 7.6606 v 1.9609 h -7.6606 z m 14.9849,-5.3906 v 7.3516 h -2.1743 v -17.7807 h 4.6069 c 0.7791,0 1.4407,0.0275 1.9838,0.0863 0.5441,0.0599 1.0415,0.1492 1.4904,0.272 1.2411,0.336 2.1884,0.9125 2.8399,1.7245 0.6575,0.809 0.9838,1.826 0.9838,3.0369 0,0.7206 -0.1135,1.3621 -0.3445,1.9274 -0.231,0.5674 -0.5532,1.0627 -0.9696,1.4799 -0.4164,0.4172 -0.9149,0.7592 -1.4944,1.0211 -0.5806,0.2679 -1.224,0.4638 -1.9301,0.5866 v 0.0538 l 5.2543,7.5922 h -2.1743 l -5.463,-7.3516 z m 0,-8.4681 v 6.5081 h 2.1378 c 0.6616,0 1.2279,-0.0233 1.6991,-0.069 0.466,-0.0406 0.8875,-0.1228 1.2593,-0.2355 0.7518,-0.2324 1.3313,-0.5998 1.7396,-1.1033 0.4073,-0.5044 0.611,-1.1662 0.611,-1.9782 -0.009,-0.7622 -0.2037,-1.3753 -0.5846,-1.8412 -0.38,-0.4648 -0.9058,-0.7998 -1.5806,-1.0048 -0.3171,-0.0944 -0.698,-0.1675 -1.1418,-0.2071 -0.4387,-0.0467 -1,-0.069 -1.6849,-0.069 z m 25.5157,8.6305 h -4.0496 v -1.96 h 6.2239 v 8.5991 c -0.1854,0.0964 -0.457,0.1969 -0.8146,0.3004 -0.3587,0.0995 -0.766,0.1949 -1.228,0.2852 -0.4579,0.0873 -0.9514,0.1583 -1.4762,0.2081 -0.5309,0.0548 -1.0466,0.0832 -1.5633,0.0832 -1.5177,0 -2.8632,-0.2091 -4.0223,-0.6262 -1.1641,-0.4172 -2.1388,-1.0069 -2.926,-1.7712 -0.7883,-0.7623 -1.382,-1.6879 -1.7893,-2.776 -0.4083,-1.0891 -0.612,-2.3061 -0.612,-3.6448 0,-1.4566 0.2219,-2.776 0.6657,-3.9656 0.4488,-1.1845 1.0922,-2.2005 1.9392,-3.045 0.847,-0.8394 1.8663,-1.488 3.0669,-1.9467 1.1955,-0.4588 2.5177,-0.6852 3.9584,-0.6852 0.3901,0 0.7792,0.0142 1.1692,0.0457 0.3891,0.0315 0.7609,0.0761 1.1135,0.1309 0.3536,0.0599 0.6849,0.1279 0.9838,0.2041 0.2989,0.0832 0.5522,0.1634 0.7558,0.2496 v 1.9021 c -0.5288,-0.1674 -1.1408,-0.3126 -1.8297,-0.4273 -0.6931,-0.1126 -1.381,-0.1725 -2.07,-0.1725 -1.0101,0 -1.9706,0.1543 -2.8855,0.4588 -0.9199,0.3034 -1.7254,0.7673 -2.4235,1.3885 -0.6981,0.6211 -1.2553,1.3986 -1.6717,2.3324 -0.4164,0.9358 -0.6251,2.033 -0.6251,3.2896 0,1.2312 0.1722,2.2959 0.5167,3.1911 0.3445,0.8942 0.8338,1.6332 1.463,2.2178 0.6342,0.5867 1.4002,1.018 2.2969,1.2992 0.9017,0.2771 1.9017,0.4182 3.003,0.4182 0.5076,0 1.0101,-0.0295 1.5086,-0.0823 0.4985,-0.0507 0.9372,-0.1268 1.3222,-0.2232 z m 13.4539,0.0416 v 7.1476 h -2.1743 v -7.1476 l -6.464,-10.6331 h 2.3648 l 5.155,8.6417 h 0.0628 l 5.155,-8.6417 h 2.3648 z" />
  <path
     id="path76"
     style="fill:#1b1918;fill-rule:evenodd"
     d="m 239.8236,328.0594 h -15.3101 l -28.23,-36.2159 v 36.2159 H 180.9734 V 268.925 h 15.3101 l 28.23,36.1723 V 268.925 h 15.3101 z" />
  <path
     id="path78"
     style="fill:#1b1918;fill-rule:evenodd"
     d="M 259.5703,328.0594 H 244.2602 V 268.925 h 15.3101 z" />
  <path
     id="path80"
     style="fill:#1b1918;fill-rule:evenodd"
     d="m 304.1803,281.6926 h -12.7427 v 46.3668 h -15.31 V 281.6926 H 263.6493 V 268.925 h 40.531 z" />
  <path
     id="path82"
     style="fill:#1b1918;fill-rule:evenodd"
     d="m 357.08,328.0594 h -19.0263 l -14.6019,-22.6069 v 22.6069 h -15.309 V 268.925 h 23.8349 c 6.9757,0 12.1236,2.099 15.4711,6.296 2.6991,3.384 4.0568,7.3577 4.0568,11.9231 0,5.2465 -1.5492,9.4272 -4.6616,12.5453 -1.9909,1.9945 -4.7346,3.383 -8.2149,4.1665 z m -21.5035,-40.0576 c 0,-2.1133 -0.768,-3.8854 -2.301,-5.3338 -1.4306,-1.3601 -3.7619,-2.0391 -6.9625,-2.0391 h -2.8612 v 14.8056 h 2.8612 c 3.231,0 5.5613,-0.68 6.9625,-2.0401 1.533,-1.4768 2.301,-3.2804 2.301,-5.3926 z" />
  <path
     id="path84"
     style="fill:#1b1918;fill-rule:evenodd"
     d="m 418.3162,298.6835 c 0,8.0398 -2.6687,15.0879 -7.994,21.1454 -6.076,6.8999 -14.306,10.3569 -24.6748,10.3569 -10.3546,0 -18.5694,-3.457 -24.6464,-10.3569 -5.3242,-6.0575 -7.9939,-13.1056 -7.9939,-21.1454 0,-3.6641 0.7224,-7.4155 2.1682,-11.2725 1.4306,-3.858 3.3627,-7.1668 5.7811,-9.9002 6.077,-6.8999 14.307,-10.358 24.691,-10.358 10.3688,0 18.5988,3.4581 24.6748,10.358 5.3253,6.0585 7.994,13.1208 7.994,21.1727 z m -15.9291,0 c 0,-4.1665 -1.3273,-7.7718 -3.9818,-10.8157 -3.4073,-3.8854 -7.6545,-5.82 -12.7579,-5.82 -3.5248,0 -6.7112,0.9886 -9.5724,2.9699 -2.847,1.9944 -4.8825,4.6385 -6.1064,7.9332 -0.693,1.8909 -1.0324,3.7981 -1.0324,5.7326 0,4.0042 1.3272,7.58 3.9828,10.7427 3.2887,3.9148 7.5217,5.8667 12.7284,5.8667 5.1915,0 9.4388,-1.9366 12.7579,-5.823 2.6545,-3.1019 3.9818,-6.6929 3.9818,-10.7864 z" />
  <defs
     id="defs92">
    <linearGradient
       id="grad7">
      <stop
         id="stop86"
         stop-opacity="1.0000"
         stop-color="#009846"
         offset="0%" />
      <stop
         id="stop88"
         stop-opacity="1.0000"
         stop-color="#ffffff"
         offset="100%" />
    </linearGradient>
    <linearGradient
       gradientUnits="objectBoundingBox"
       gradientTransform="rotate(-173,0.5,0.5)"
       y2="1"
       x2="0"
       y1="0"
       x1="0"
       id="grad8"
       xlink:href="#grad7" />
  </defs>
  <path
     id="path94"
     style="fill:url(#grad8)"
     d="M 180.9734,219.1305 297.1043,89.3363 330.6271,134.6628 418.3172,69.2699 315.849,209.7946 278.6382,158.571 Z" />
</svg>
