<svg width="18" height="35" viewBox="0 0 18 35" fill="none" xmlns="http://www.w3.org/2000/svg">
<path d="M0.767529 18.2483H4.52323V33.71C4.52323 34.0153 4.77057 34.2626 5.07585 34.2626H11.4438C11.7491 34.2626 11.9964 34.0153 11.9964 33.71V18.3211H16.314C16.5947 18.3211 16.8309 18.1105 16.863 17.8316L17.5187 12.1394C17.5367 11.9828 17.4871 11.826 17.3824 11.7085C17.2775 11.5909 17.1274 11.5236 16.9699 11.5236H11.9967V7.95535C11.9967 6.87976 12.5758 6.3343 13.7183 6.3343C13.8811 6.3343 16.9699 6.3343 16.9699 6.3343C17.2751 6.3343 17.5225 6.08684 17.5225 5.78168V0.556701C17.5225 0.251415 17.2751 0.00408207 16.9699 0.00408207H12.4886C12.457 0.00254293 12.3868 0 12.2834 0C11.5058 0 8.80318 0.152643 6.66826 2.11665C4.3028 4.29313 4.63164 6.89903 4.71021 7.35087V11.5234H0.767462C0.462177 11.5234 0.214844 11.7708 0.214844 12.076V17.6956C0.214911 18.0008 0.462244 18.2483 0.767529 18.2483Z" fill="#385C8E"/>
</svg>
