<svg width="24" height="23" viewBox="0 0 24 23" fill="none" xmlns="http://www.w3.org/2000/svg">
<path d="M22.7094 14.3366C23.3506 13.2347 23.7777 11.9938 23.9333 10.6709C23.9339 10.6667 23.9343 10.6625 23.9348 10.6583C23.9772 10.294 23.9997 9.92355 23.9997 9.548C23.9997 7.06806 23.0491 4.80614 21.4934 3.10688C21.4686 3.07217 21.4394 3.0405 21.4063 3.01323C20.3957 1.93844 19.1399 1.09673 17.7287 0.579453C17.7033 0.568008 17.677 0.558472 17.6501 0.551605C16.6497 0.194931 15.5732 0 14.4517 0C13.2008 0 12.0055 0.242233 10.9097 0.681496C10.88 0.69046 10.8514 0.702286 10.8237 0.716782C9.47636 1.2722 8.28313 2.12746 7.32716 3.19881C7.29588 3.22647 7.26804 3.25756 7.24458 3.29189C5.78717 4.96883 4.90369 7.15714 4.90369 9.548C4.90369 9.90639 4.92429 10.2602 4.96301 10.6085C4.96339 10.6129 4.96396 10.6171 4.96453 10.6213C5.03548 11.2534 5.16843 11.8668 5.35706 12.4556L0.228012 17.5846C0.0372772 17.7753 0.0372772 18.0845 0.228012 18.2753C0.32338 18.3706 0.448311 18.4183 0.573242 18.4183C0.698174 18.4183 0.823105 18.3706 0.918472 18.2753L5.73987 13.4541C5.87415 13.7522 6.0233 14.0425 6.18638 14.3234C6.20126 14.357 6.22014 14.3885 6.24207 14.4176C7.45248 16.4503 9.39568 17.9976 11.7047 18.6926L8.26501 22.1321C8.07446 22.3228 8.07446 22.632 8.26501 22.8228C8.36037 22.9181 8.4855 22.9658 8.61043 22.9658C8.73536 22.9658 8.86029 22.9181 8.95566 22.8228L12.822 18.9562C13.3519 19.0477 13.8963 19.096 14.4517 19.096C17.9297 19.096 20.979 17.2262 22.6483 14.4394C22.6727 14.4077 22.6933 14.3734 22.7094 14.3366ZM18.4846 14.3559L16.7474 11.6825L17.6711 8.83961L19.8666 8.34656L20.4379 8.21838L22.934 10.7817C22.7824 11.8292 22.4406 12.816 21.9447 13.706L18.4846 14.3559ZM12.1562 11.6825L10.4197 14.3545L6.94894 13.6885C6.45169 12.7911 6.11104 11.7954 5.96341 10.7388L8.4628 8.21762L11.2325 8.83961L11.848 10.7342L12.1562 11.6825ZM7.34452 4.76151L7.78493 7.51438L5.88177 9.43413C5.90447 7.70626 6.44025 6.09989 7.34452 4.76151ZM13.0473 11.265L12.1848 8.61053L14.4427 6.97021L16.7006 8.61073L15.8381 11.265H13.0473ZM23.0222 9.47247L21.1091 7.5079L21.4473 4.60033C22.4257 5.97992 23.0063 7.65991 23.0222 9.47247ZM20.5846 3.56636L20.1524 7.28168L19.1018 7.51743L17.401 7.89928L14.9489 6.11782V3.47443L17.599 1.57509C18.7322 2.02408 19.7471 2.70805 20.5846 3.56636ZM16.4342 1.2085L14.4311 2.64416L12.198 1.27792C12.9165 1.08185 13.672 0.976562 14.4517 0.976562C15.1339 0.976562 15.7977 1.05705 16.4342 1.2085ZM11.0129 1.69754L13.9544 3.49731V6.11782L12.2249 7.37438L11.5025 7.89928L8.73612 7.27825L8.16773 3.72543C8.96214 2.86865 9.92898 2.17419 11.0129 1.69754ZM7.70406 14.8277L10.3387 15.3336L11.6805 17.6594C10.0953 17.1164 8.71819 16.1209 7.70406 14.8277ZM13.0023 17.9962L11.2225 14.9113L12.9575 12.2416H15.9459L17.6808 14.9113L15.9015 17.996C15.43 18.0767 14.9457 18.1192 14.4517 18.1192C13.9577 18.1194 13.4736 18.0769 13.0023 17.9962ZM17.2231 17.6594L18.5641 15.3345L21.1886 14.8415C20.1756 16.128 18.8027 17.1183 17.2231 17.6594Z" fill="black"/>
</svg>
