<svg width="19" height="19" viewBox="0 0 19 19" fill="none" xmlns="http://www.w3.org/2000/svg">
<path d="M17.1588 3.88206C15.6577 1.83655 13.4499 0.49798 10.942 0.113008C8.43421 -0.272002 5.92654 0.342678 3.881 1.84379C1.8355 3.3449 0.496926 5.55272 0.111954 8.06057C-0.22229 10.238 0.197491 12.415 1.29622 14.2898C1.297 14.2912 1.29786 14.2926 1.29864 14.294C1.4647 14.577 1.64591 14.8534 1.84273 15.1216C3.18038 16.9444 5.12765 18.2325 7.32575 18.7485C7.42595 18.772 7.5264 18.7935 7.62704 18.8137C7.64801 18.8196 7.66942 18.8236 7.69117 18.8258C8.29126 18.942 8.89808 19.0005 9.50333 19.0005C10.1128 19.0005 10.7203 18.9411 11.3172 18.8254C11.3349 18.8233 11.3523 18.82 11.3695 18.8154C12.1994 18.6496 13.008 18.3734 13.7711 17.9883C13.954 17.896 14.0275 17.6728 13.9352 17.4899C13.8428 17.3069 13.6197 17.2334 13.4367 17.3258C12.9771 17.5577 12.506 17.7454 12.0285 17.8908L13.5671 15.2234L16.5794 14.6576C16.3175 15.0187 16.0254 15.3628 15.7028 15.6855C15.5579 15.8305 15.558 16.0654 15.7029 16.2103C15.8479 16.3552 16.0828 16.3551 16.2277 16.2102C16.7953 15.6423 17.284 15.0069 17.6865 14.3223C17.6895 14.3174 17.6925 14.3125 17.6953 14.3075C18.3515 13.1867 18.7758 11.9344 18.9322 10.6279C18.9336 10.6189 18.9346 10.6098 18.9353 10.6006C18.9486 10.4875 18.9603 10.3741 18.9694 10.2602C19.1524 7.98758 18.5094 5.7225 17.1588 3.88206ZM10.8295 0.846511C12.752 1.14164 14.4828 2.04507 15.8071 3.42517L15.3544 7.3176L12.4454 7.97073L9.88092 6.10751V3.32059L10.4523 2.91105C10.6188 2.79167 10.6571 2.55985 10.5377 2.3933C10.4183 2.22676 10.1866 2.18853 10.02 2.30788L9.48533 2.69107L6.92917 1.1271C8.17556 0.74331 9.50237 0.642818 10.8295 0.846511ZM7.07475 8.51123L8.28325 7.63322L9.49175 6.75521L11.9088 8.51126L10.9856 11.3526H7.99795V11.3526L7.07475 8.51123ZM4.32008 2.4421C4.8621 2.04433 5.43948 1.71446 6.04177 1.45421L9.1207 3.33803V6.10754L6.55618 7.9708L3.63575 7.31512L3.03944 3.58782C3.42385 3.16959 3.8518 2.78574 4.32008 2.4421ZM0.84542 8.17316C1.06065 6.77113 1.59967 5.47115 2.4108 4.3562L2.91286 7.49458L0.743667 9.68273C0.734463 9.1825 0.76801 8.67785 0.84542 8.17316ZM0.817774 10.662L3.42801 8.02899L6.35096 8.68523L7.32074 11.6699L5.49548 14.4788L1.85936 13.7808C1.31296 12.8095 0.962129 11.7538 0.817774 10.662ZM2.44101 14.6826C2.43129 14.6693 2.42205 14.6559 2.4124 14.6426L5.43399 15.2226L6.9773 17.8978C5.21219 17.3656 3.60736 16.2719 2.44101 14.6826ZM11.0328 18.1316C10.0101 18.3157 8.97389 18.3129 7.97086 18.1349L6.10563 14.9017L7.92975 12.0947H11.0718L12.8959 14.9018L11.0328 18.1316ZM17.1274 13.7995L13.5066 14.4796L11.6808 11.6699L12.6506 8.68519L15.5714 8.02944L18.1605 10.6882C18.014 11.7722 17.6682 12.8306 17.1274 13.7995ZM18.2383 9.70448L16.0814 7.48957L16.4648 4.19392C16.4969 4.23612 16.5291 4.27827 16.5605 4.32113C17.7324 5.91802 18.2831 7.82092 18.2383 9.70448Z" fill="black"/>
</svg>
