<svg width="35" height="35" viewBox="0 0 35 35" fill="none" xmlns="http://www.w3.org/2000/svg">
<g clip-path="url(#clip0)">
<path d="M34.1596 10.0682C34.0762 8.24465 33.7866 6.99933 33.3631 5.9098C32.9331 4.76669 32.2587 3.73127 31.3872 2.87543C30.5316 2.00392 29.4959 1.32923 28.3528 0.898965C27.263 0.475754 26.018 0.18638 24.1944 0.103516C22.3675 0.0198666 21.7838 0 17.1313 0C12.4789 0 11.8951 0.0198666 10.0682 0.102993C8.24465 0.18638 6.99959 0.476015 5.9098 0.899488C4.76669 1.3295 3.73127 2.00392 2.87543 2.87543C2.00392 3.73101 1.32923 4.76642 0.898965 5.90954C0.475754 6.99933 0.18638 8.24465 0.103516 10.0679C0.0198666 11.8951 0 12.4786 0 17.1311C0 21.7838 0.0198666 22.3675 0.103516 24.1944C0.186642 26.0177 0.476276 27.263 0.899749 28.3528C1.32976 29.4957 2.00418 30.5314 2.8757 31.3869C3.73127 32.2584 4.76695 32.9329 5.91006 33.3629C6.99959 33.7866 8.24492 34.076 10.0685 34.1594C11.8957 34.2428 12.4791 34.2624 17.1316 34.2624C21.784 34.2624 22.3677 34.2428 24.1947 34.1594C26.0182 34.076 27.2633 33.7866 28.3531 33.3629C30.6542 32.4731 32.4733 30.654 33.3631 28.3528C33.7869 27.263 34.0762 26.0177 34.1596 24.1944C34.2428 22.3672 34.2626 21.7838 34.2626 17.1313C34.2626 12.4786 34.2428 11.8951 34.1596 10.0682ZM31.0759 24.0541C30.9998 25.7244 30.7206 26.6315 30.4861 27.2351C29.9097 28.7292 28.729 29.91 27.2348 30.4864C26.6312 30.7209 25.7242 31.0001 24.0538 31.0761C22.2478 31.1587 21.7059 31.176 17.1313 31.176C12.5565 31.176 12.0149 31.1587 10.2086 31.0761C8.53847 31.0001 7.6314 30.7209 7.02756 30.4864C6.28361 30.2117 5.61049 29.7738 5.05789 29.2047C4.48881 28.6521 4.05096 27.9793 3.77623 27.2351C3.54175 26.6315 3.26257 25.7244 3.1865 24.0541C3.10416 22.2478 3.08665 21.7059 3.08665 17.1316C3.08665 12.557 3.10416 12.0154 3.1865 10.2088C3.26283 8.53847 3.54175 7.6314 3.77623 7.02782C4.05096 6.28361 4.48908 5.61049 5.05789 5.05789C5.61049 4.48881 6.28361 4.05096 7.02782 3.77649C7.6314 3.54175 8.53847 3.26283 10.2088 3.1865C12.0151 3.10416 12.557 3.08665 17.1313 3.08665H17.1311C21.7053 3.08665 22.2472 3.10416 24.0538 3.18677C25.7242 3.26283 26.631 3.54201 27.2348 3.77649C27.9788 4.05123 28.6519 4.48908 29.2045 5.05789C29.7736 5.61049 30.2114 6.28361 30.4859 7.02782C30.7206 7.6314 30.9998 8.53847 31.0759 10.2088C31.1582 12.0151 31.1757 12.557 31.1757 17.1313C31.1757 21.7059 31.1585 22.2475 31.0759 24.0541Z" fill="url(#paint0_linear)"/>
<path d="M17.131 8.33405C12.2725 8.33405 8.33398 12.2729 8.33398 17.1313C8.33398 21.9897 12.2725 25.9283 17.131 25.9283C21.9897 25.9283 25.9282 21.9897 25.9282 17.1313C25.9282 12.2729 21.9897 8.33405 17.131 8.33405ZM17.131 22.8417C13.9774 22.8414 11.4206 20.2849 11.4209 17.131C11.4209 13.9775 13.9774 11.4207 17.1312 11.4207C20.2851 11.421 22.8416 13.9775 22.8416 17.131C22.8416 20.2849 20.2848 22.8417 17.131 22.8417Z" fill="url(#paint1_linear)"/>
<path d="M28.3313 7.98666C28.3313 9.12193 27.4109 10.0423 26.2757 10.0423C25.1401 10.0423 24.2197 9.12193 24.2197 7.98666C24.2197 6.85113 25.1401 5.93073 26.2757 5.93073C27.4109 5.93073 28.3313 6.85113 28.3313 7.98666Z" fill="url(#paint2_linear)"/>
</g>
<defs>
<linearGradient id="paint0_linear" x1="2.87526" y1="31.3871" x2="31.3874" y2="2.87498" gradientUnits="userSpaceOnUse">
<stop stop-color="#FFD600"/>
<stop offset="0.5" stop-color="#FF0100"/>
<stop offset="1" stop-color="#D800B9"/>
</linearGradient>
<linearGradient id="paint1_linear" x1="10.9106" y1="23.3517" x2="23.3516" y2="10.9107" gradientUnits="userSpaceOnUse">
<stop stop-color="#FF6400"/>
<stop offset="0.5" stop-color="#FF0100"/>
<stop offset="1" stop-color="#FD0056"/>
</linearGradient>
<linearGradient id="paint2_linear" x1="24.822" y1="9.44015" x2="27.7292" y2="6.53293" gradientUnits="userSpaceOnUse">
<stop stop-color="#F30072"/>
<stop offset="1" stop-color="#E50097"/>
</linearGradient>
<clipPath id="clip0">
<rect width="34.2626" height="34.2626" fill="white"/>
</clipPath>
</defs>
</svg>
