<svg width="371" height="243" viewBox="0 0 371 243" fill="none" xmlns="http://www.w3.org/2000/svg">
<rect x="1.5" y="1.5" width="367.615" height="240" fill="#B9B9B9" stroke="#797777" stroke-width="3"/>
<path d="M3 3H367.615V240H3V3Z" fill="#FF0000"/>
<path d="M163.584 101.512C159.339 98.8751 154.837 96.6883 150.206 94.8873C146.218 100.805 143.902 107.88 143.902 115.534C143.902 119.329 144.481 122.995 145.575 126.468C147.504 122.03 149.948 117.721 152.907 113.604C156.059 109.102 159.661 105.05 163.584 101.512ZM152.264 92.1859C157.281 93.9225 162.105 96.1737 166.736 98.8108C167.765 97.9103 168.858 97.1385 169.888 96.3667C164.999 93.6652 159.789 91.4784 154.451 89.8061C153.679 90.5779 152.907 91.3497 152.264 92.1859ZM156.766 87.6192C162.555 89.1629 168.087 91.2854 173.296 94.0512C174.519 93.2793 175.741 92.5718 176.898 91.8643C171.367 89.0342 165.514 86.976 159.468 85.4967C158.503 86.1399 157.602 86.8474 156.766 87.6192ZM162.233 83.76C168.601 85.0464 174.776 87.1046 180.565 89.9347C186.418 87.1046 192.592 85.0464 198.896 83.76C193.557 80.6084 187.254 78.8074 180.565 78.8074C173.875 78.8074 167.636 80.6084 162.233 83.76ZM201.661 85.561C195.615 86.976 189.762 89.0985 184.231 91.8643C185.453 92.5718 186.611 93.2793 187.833 94.0512C193.107 91.2854 198.638 89.1629 204.363 87.6192C203.527 86.8474 202.626 86.1398 201.661 85.561ZM206.678 89.8704C201.34 91.4784 196.194 93.6652 191.242 96.3667C192.335 97.1385 193.429 97.9747 194.458 98.8108C199.024 96.1737 203.848 93.9225 208.865 92.1859C208.222 91.3497 207.515 90.5779 206.678 89.8704ZM210.923 94.9516C206.292 96.6883 201.854 98.8751 197.609 101.512C201.533 105.05 205.07 109.102 208.286 113.604C211.181 117.721 213.625 122.03 215.619 126.468C216.648 122.931 217.227 119.329 217.227 115.534C217.227 107.88 214.911 100.805 210.923 94.9516ZM207.772 120.165C203.913 113.926 199.282 108.394 194.136 103.699C192.978 104.535 191.756 105.371 190.663 106.208C199.346 114.312 206.357 124.474 210.795 136.309C211.824 134.766 212.789 133.158 213.561 131.55C211.953 127.69 210.023 123.895 207.772 120.165ZM187.382 103.442C188.54 102.606 189.698 101.77 190.92 100.998C189.891 100.097 188.798 99.2611 187.704 98.4249C186.482 99.1967 185.26 99.9686 184.038 100.805H184.102C185.196 101.641 186.289 102.541 187.382 103.442ZM180.565 98.2963C181.787 97.5244 183.073 96.7526 184.231 96.0451C183.009 95.2732 181.787 94.5014 180.565 93.7939C179.343 94.5014 178.185 95.2732 176.963 96.0451C178.185 96.7526 179.343 97.5244 180.565 98.2963ZM177.091 100.805C175.869 99.9686 174.712 99.1967 173.489 98.4249C172.396 99.2611 171.303 100.097 170.209 100.933C171.431 101.77 172.589 102.541 173.747 103.378C174.84 102.477 175.934 101.641 177.091 100.805ZM180.565 103.378C179.471 104.214 178.378 105.114 177.22 106.079C178.378 106.979 179.471 107.944 180.565 108.909C181.658 107.944 182.751 106.979 183.909 106.079C182.816 105.178 181.722 104.214 180.565 103.378ZM180.565 115.405C175.676 120.68 171.367 126.726 167.894 133.479C165.514 137.982 163.649 142.677 162.233 147.372C167.636 150.395 173.875 152.196 180.565 152.196C187.254 152.196 193.493 150.395 198.896 147.372C197.481 142.677 195.615 137.982 193.236 133.479C189.762 126.726 185.517 120.68 180.565 115.405ZM159.339 139.782C163.52 129.105 169.695 119.779 177.284 112.061C176.191 111.032 175.097 110.067 173.94 109.038C165.128 117.592 158.053 128.205 153.743 140.49C154.965 141.841 156.252 143.063 157.667 144.221C158.181 142.741 158.76 141.262 159.339 139.782ZM183.845 112.061C191.435 119.779 197.609 129.105 201.854 139.782C202.433 141.262 202.948 142.741 203.462 144.221C204.877 143.063 206.228 141.841 207.45 140.49C203.076 128.205 196.001 117.592 187.19 109.038C186.032 110.067 184.938 111.032 183.845 112.061ZM150.334 136.309C154.772 124.474 161.783 114.376 170.531 106.272C169.373 105.371 168.215 104.535 166.993 103.699C161.848 108.459 157.217 113.99 153.357 120.229C151.106 123.895 149.177 127.69 147.569 131.55C148.34 133.222 149.305 134.766 150.334 136.309ZM180.758 75.8487C203.398 75.8487 221.858 94.3084 221.858 116.949C221.858 139.59 203.398 158.049 180.758 158.049C158.117 158.049 139.657 139.59 139.657 116.949C139.657 94.3084 158.117 75.8487 180.758 75.8487ZM198.896 66.8439C197.738 68.1947 196.452 69.9313 195.165 72.697C194.844 71.9895 194.844 71.1534 195.037 70.2529C195.358 67.2942 196.194 65.4932 197.738 62.9848C198.253 62.0843 198.767 61.3125 199.024 60.3477C199.989 57.4533 199.796 53.5941 197.674 50.5711C197.995 53.98 196.966 56.8101 195.808 58.5467C195.615 58.8683 195.422 59.0613 195.165 59.3185C193.943 60.5406 192.592 61.7627 190.856 64.5928C189.891 66.1364 188.926 68.0017 188.026 70.9604C187.64 70.3172 187.511 69.5454 187.575 68.6449C187.447 65.6219 187.961 63.7566 189.055 60.9909C189.441 60.0261 189.827 59.1899 189.955 58.1608C190.406 55.2021 189.634 51.4072 187.061 48.7701C187.897 52.0504 187.382 55.0091 186.482 56.9387C186.289 57.2603 186.16 57.5176 185.967 57.7749C184.938 59.1899 183.845 60.6049 182.494 63.628C181.851 65.3646 181.143 67.3585 180.758 70.3815C180.243 69.8027 179.986 69.0308 179.921 68.1303C179.343 65.1716 179.535 63.242 180.179 60.3477C180.436 59.3829 180.693 58.4824 180.629 57.4533C180.629 54.4302 179.278 50.8283 176.32 48.5771C177.67 51.7288 177.606 54.7518 177.027 56.8101C176.898 57.0674 176.77 57.3889 176.641 57.6462C175.869 59.2542 174.969 60.7979 174.133 64.0139C173.747 65.8148 173.361 67.9374 173.425 70.9604C172.911 70.4458 172.525 69.7383 172.267 68.9022C171.238 66.0078 171.11 64.1425 171.367 61.1195C171.431 60.0904 171.496 59.1899 171.367 58.2251C170.852 55.2021 168.923 51.8575 165.707 50.1208C167.508 53.0152 167.894 56.0382 167.636 58.0965C167.572 58.4181 167.508 58.7397 167.443 59.0613C166.929 60.7336 166.286 62.4059 165.964 65.7505C165.835 67.5515 165.771 69.674 166.35 72.697C165.707 72.2468 165.257 71.6036 164.871 70.8318C163.391 68.1303 163.005 66.2651 162.748 63.3064C162.684 62.2772 162.619 61.3768 162.233 60.412C161.333 57.5176 158.889 54.4946 155.416 53.3368C157.667 55.8453 158.567 58.7397 158.567 60.8622C158.567 61.1838 158.567 61.5054 158.503 61.827C158.246 63.5636 157.924 65.3646 158.117 68.6449C158.31 70.4458 158.567 72.5684 159.596 75.4628C158.889 75.1412 158.31 74.5623 157.795 73.8548C155.93 71.475 155.287 69.674 154.579 66.7796C154.322 65.7505 154.129 64.9144 153.615 63.9496C152.264 61.3125 149.37 58.6753 145.768 58.0322C148.34 60.219 149.691 62.9848 150.077 65.043C150.141 65.3646 150.141 65.6862 150.141 66.0078C150.206 67.7444 150.141 69.5454 150.849 72.8257C151.299 74.5623 151.878 76.6205 153.357 79.2576C152.65 79.0647 152.007 78.6144 151.363 77.9712C149.112 75.913 148.147 74.2407 147.054 71.475C146.668 70.5102 146.282 69.674 145.703 68.8379C143.902 66.458 140.686 64.3355 136.956 64.2712C139.915 66.0078 141.651 68.4519 142.359 70.4458C142.423 70.7674 142.487 71.089 142.552 71.4106C142.873 73.1473 143.066 74.9482 144.288 78.0356C144.996 79.7079 145.961 81.6375 147.826 84.0173C147.054 83.953 146.347 83.5671 145.639 83.0525C143.131 81.3802 141.908 79.8365 140.3 77.3281C139.786 76.4276 139.336 75.6557 138.564 74.9482C136.441 72.8257 132.904 71.2177 129.238 71.7322C132.389 73.0186 134.512 75.2055 135.541 77.0708C135.669 77.328 135.798 77.6497 135.927 77.9712C136.506 79.5792 136.956 81.3159 138.628 84.2103C139.593 85.7539 140.815 87.4906 143.066 89.6131C142.294 89.6131 141.523 89.3558 140.751 88.9699C137.985 87.6835 136.57 86.3971 134.64 84.1459C133.933 83.3741 133.354 82.6666 132.518 82.0234C130.074 80.2868 126.343 79.2576 122.806 80.3511C126.15 81.1229 128.594 82.9239 129.816 84.5962C130.074 84.8535 130.202 85.1107 130.331 85.4323C131.167 86.976 131.939 88.6483 134.061 91.1568C135.219 92.5718 136.699 94.1155 139.207 95.8521C138.5 95.9808 137.728 95.8521 136.827 95.5305C133.933 94.7587 132.325 93.6652 130.074 91.7357C129.302 91.0925 128.594 90.5136 127.694 89.999C124.992 88.6483 121.133 88.2624 117.789 89.8704C121.198 90.0634 123.899 91.5427 125.443 92.9577C125.636 93.215 125.829 93.408 126.022 93.7296C127.115 95.0803 128.08 96.624 130.588 98.8108C131.939 99.9686 133.676 101.255 136.441 102.606C135.734 102.863 134.898 102.863 134.061 102.67C131.038 102.348 129.302 101.512 126.729 99.9686C125.829 99.454 125.057 98.9395 124.092 98.6822C121.198 97.7174 117.403 97.9103 114.38 100.033C117.724 99.7113 120.619 100.74 122.355 101.898C122.613 102.091 122.87 102.284 123.063 102.541C124.349 103.763 125.571 105.114 128.337 106.851C129.881 107.816 131.81 108.845 134.705 109.681C134.061 110.067 133.29 110.195 132.389 110.195C129.366 110.26 127.501 109.745 124.735 108.652C123.77 108.266 122.934 107.88 121.905 107.751C118.946 107.301 115.151 108.073 112.514 110.646C115.795 109.809 118.818 110.324 120.683 111.225C121.005 111.417 121.262 111.546 121.519 111.739C122.934 112.768 124.349 113.862 127.437 115.212C129.109 115.856 131.103 116.563 134.126 116.949C133.547 117.464 132.775 117.721 131.939 117.785C128.916 118.428 127.051 118.171 124.092 117.528C123.127 117.271 122.227 117.078 121.198 117.078C118.175 117.078 114.573 118.428 112.386 121.387C115.473 120.036 118.496 120.101 120.554 120.68C120.876 120.808 121.133 120.937 121.455 121.065C122.998 121.837 124.606 122.738 127.822 123.574C129.559 123.96 131.682 124.346 134.705 124.281C134.19 124.796 133.483 125.182 132.646 125.439C129.816 126.468 127.887 126.597 124.928 126.34C123.899 126.275 122.998 126.211 121.969 126.34C119.011 126.854 115.666 128.784 113.929 132.064C116.759 130.199 119.783 129.813 121.905 130.07C122.227 130.134 122.484 130.199 122.806 130.263C124.478 130.842 126.15 131.421 129.495 131.742C131.296 131.871 133.418 131.935 136.441 131.357C135.991 132 135.348 132.45 134.576 132.836C131.939 134.315 130.009 134.701 127.051 134.958C126.022 135.087 125.121 135.151 124.156 135.473C121.262 136.374 118.303 138.818 117.081 142.291C119.654 140.04 122.548 139.204 124.671 139.139C124.992 139.139 125.314 139.139 125.636 139.204C127.308 139.461 129.109 139.782 132.453 139.59C134.254 139.461 136.377 139.139 139.207 138.11C138.95 138.818 138.371 139.397 137.599 139.911C135.219 141.776 133.418 142.42 130.524 143.127C129.559 143.384 128.659 143.577 127.758 144.092C125.057 145.443 122.484 148.337 121.841 151.939C123.963 149.366 126.729 148.015 128.787 147.629C129.109 147.565 129.43 147.565 129.752 147.565C131.489 147.501 133.354 147.565 136.57 146.858C138.307 146.407 140.365 145.829 143.066 144.349C142.873 145.057 142.359 145.764 141.716 146.343C139.657 148.594 137.985 149.559 135.219 150.652C134.319 151.103 133.483 151.424 132.646 152.003C130.202 153.804 128.08 157.02 128.015 160.751C129.752 157.792 132.261 156.055 134.254 155.348C134.576 155.284 134.833 155.219 135.155 155.155C136.892 154.833 138.692 154.64 141.78 153.418C143.452 152.711 145.382 151.746 147.826 149.945C147.697 150.652 147.376 151.36 146.797 152.068C145.124 154.576 143.645 155.798 141.072 157.406C140.236 157.921 139.464 158.371 138.693 159.143C136.57 161.265 135.026 164.803 135.541 168.469C136.763 165.317 138.95 163.195 140.815 162.166C141.137 162.037 141.394 161.908 141.716 161.78C143.388 161.265 145.124 160.751 147.955 159.078C149.498 158.114 151.235 156.891 153.357 154.64C153.422 155.412 153.164 156.184 152.714 156.956C151.428 159.722 150.141 161.137 147.89 163.066C147.118 163.774 146.411 164.353 145.832 165.189C144.095 167.633 143.066 171.363 144.16 174.901C144.867 171.556 146.668 169.112 148.405 167.89C148.662 167.697 148.919 167.504 149.177 167.376C150.72 166.539 152.393 165.768 154.965 163.645C156.316 162.487 157.86 161.008 159.596 158.499C159.725 159.207 159.596 160.043 159.339 160.879C158.503 163.774 157.474 165.382 155.48 167.633C154.837 168.405 154.258 169.112 153.808 170.077C152.457 172.778 152.007 176.573 153.615 179.918C153.872 176.509 155.287 173.808 156.766 172.328C156.959 172.071 157.217 171.878 157.474 171.685C158.889 170.592 160.368 169.627 162.555 167.118C163.713 165.768 164.999 164.031 166.35 161.265C166.607 161.973 166.607 162.809 166.479 163.645C166.093 166.668 165.321 168.405 163.777 170.978C163.198 171.878 162.748 172.65 162.426 173.615C161.526 176.509 161.719 180.368 163.841 183.391C163.52 179.982 164.485 177.088 165.707 175.351C165.9 175.094 166.093 174.837 166.286 174.644C167.508 173.357 168.858 172.135 170.659 169.37C171.56 167.826 172.589 165.896 173.425 163.002C173.811 163.645 173.94 164.417 173.94 165.317C174.068 168.34 173.554 170.206 172.396 172.971C172.01 173.936 171.688 174.772 171.496 175.801C171.045 178.76 171.817 182.555 174.39 185.192C173.554 181.912 174.068 178.889 175.033 177.024C175.162 176.702 175.29 176.445 175.483 176.187C176.512 174.772 177.67 173.357 178.957 170.27C179.664 168.598 180.372 166.604 180.758 163.581C181.208 164.16 181.465 164.931 181.594 165.768C182.173 168.791 181.98 170.656 181.272 173.615C181.015 174.579 180.822 175.48 180.822 176.509C180.822 179.532 182.237 183.134 185.196 185.321C183.845 182.233 183.845 179.21 184.488 177.152C184.552 176.831 184.681 176.573 184.81 176.252C185.582 174.708 186.482 173.1 187.318 169.884C187.704 168.147 188.09 166.025 188.026 163.002C188.605 163.516 188.926 164.224 189.183 165.06C190.277 167.89 190.341 169.82 190.148 172.843C190.02 173.808 189.955 174.708 190.148 175.737C190.598 178.76 192.528 182.105 195.808 183.841C194.007 180.947 193.557 177.924 193.879 175.866C193.879 175.544 193.943 175.223 194.072 174.901C194.586 173.229 195.229 171.556 195.551 168.212C195.615 166.411 195.68 164.288 195.165 161.265C195.744 161.715 196.259 162.359 196.645 163.131C198.124 165.768 198.51 167.697 198.767 170.656C198.831 171.685 198.896 172.586 199.217 173.55C200.182 176.445 202.562 179.403 206.1 180.625C203.848 178.053 202.948 175.158 202.884 173.036C202.884 172.714 202.884 172.393 202.948 172.071C203.205 170.399 203.591 168.598 203.334 165.253C203.205 163.452 202.884 161.33 201.919 158.499C202.562 158.821 203.141 159.336 203.655 160.107C205.521 162.487 206.228 164.288 206.936 167.183C207.129 168.147 207.386 169.048 207.836 169.948C209.251 172.65 212.081 175.223 215.747 175.866C213.11 173.743 211.76 170.978 211.374 168.919C211.309 168.598 211.309 168.276 211.309 167.954C211.309 166.218 211.374 164.417 210.666 161.137C210.216 159.4 209.573 157.342 208.093 154.64C208.865 154.833 209.508 155.348 210.087 155.991C212.339 158.049 213.303 159.722 214.461 162.487C214.847 163.388 215.169 164.224 215.812 165.06C217.613 167.504 220.829 169.627 224.495 169.691C221.601 167.954 219.864 165.446 219.156 163.452C219.028 163.131 218.963 162.873 218.899 162.552C218.642 160.815 218.385 159.014 217.163 155.927C216.455 154.254 215.555 152.325 213.689 149.945C214.461 150.009 215.169 150.331 215.876 150.91C218.385 152.582 219.607 154.061 221.15 156.634C221.665 157.47 222.179 158.307 222.887 159.014C225.01 161.137 228.547 162.68 232.213 162.166C229.062 160.944 226.939 158.757 225.974 156.891C225.781 156.57 225.653 156.313 225.588 155.991C225.01 154.319 224.495 152.582 222.823 149.752C221.858 148.208 220.636 146.472 218.449 144.349C219.156 144.349 219.928 144.542 220.764 144.992C223.466 146.279 224.945 147.565 226.875 149.816C227.518 150.588 228.097 151.296 228.933 151.875C231.377 153.676 235.108 154.64 238.645 153.611C235.365 152.839 232.921 151.038 231.634 149.302C231.441 149.044 231.249 148.787 231.12 148.53C230.284 146.986 229.576 145.314 227.454 142.741C226.232 141.39 224.752 139.847 222.244 138.11C223.016 137.982 223.787 138.11 224.624 138.367C227.518 139.204 229.126 140.297 231.441 142.227C232.213 142.87 232.921 143.449 233.821 143.899C236.523 145.25 240.318 145.7 243.662 144.092C240.253 143.835 237.616 142.42 236.072 140.94C235.815 140.747 235.622 140.49 235.429 140.233C234.4 138.818 233.371 137.338 230.927 135.151C229.512 133.994 227.775 132.707 225.074 131.357C225.781 131.099 226.553 131.099 227.454 131.228C230.412 131.614 232.213 132.386 234.722 133.994C235.622 134.508 236.394 134.958 237.359 135.28C240.253 136.181 244.112 135.988 247.135 133.865C243.727 134.187 240.896 133.222 239.16 132C238.903 131.807 238.645 131.614 238.388 131.421C237.166 130.199 235.944 128.848 233.114 127.047C231.57 126.147 229.705 125.118 226.746 124.281C227.389 123.896 228.225 123.767 229.062 123.767C232.149 123.638 234.014 124.153 236.716 125.311C237.68 125.696 238.517 126.018 239.546 126.211C242.504 126.661 246.299 125.889 248.936 123.317C245.656 124.153 242.697 123.638 240.768 122.673C240.511 122.545 240.189 122.416 239.932 122.223C238.517 121.194 237.102 120.101 234.079 118.75C232.406 118.107 230.348 117.399 227.325 116.949C227.904 116.499 228.676 116.241 229.576 116.113C232.535 115.534 234.465 115.727 237.359 116.434C238.324 116.692 239.224 116.885 240.253 116.885C243.276 116.885 246.878 115.47 249.129 112.575C245.978 113.862 242.955 113.862 240.961 113.218C240.639 113.154 240.318 113.025 240.06 112.897C238.452 112.125 236.909 111.225 233.693 110.388C231.892 110.002 229.833 109.617 226.746 109.681C227.261 109.102 227.968 108.78 228.804 108.523C231.699 107.43 233.628 107.365 236.587 107.558C237.616 107.687 238.517 107.751 239.546 107.558C242.504 107.108 245.849 105.178 247.586 101.898C244.691 103.699 241.733 104.149 239.61 103.892C239.288 103.828 238.967 103.763 238.645 103.635C236.973 103.12 235.301 102.477 232.02 102.155C230.219 102.091 228.033 102.027 225.074 102.606C225.46 101.962 226.103 101.448 226.939 101.062C229.576 99.5827 231.441 99.1967 234.4 98.9395C235.429 98.8751 236.33 98.8108 237.295 98.4892C240.189 97.5244 243.212 95.1446 244.37 91.607C241.861 93.8582 238.967 94.7587 236.844 94.823C236.523 94.823 236.201 94.823 235.88 94.7587C234.143 94.5014 232.342 94.1155 229.062 94.3728C227.261 94.5014 225.138 94.823 222.244 95.8521C222.565 95.1446 223.144 94.5657 223.852 94.0512C226.232 92.1859 228.033 91.4784 230.927 90.7709C231.956 90.5779 232.792 90.3206 233.757 89.8704C236.394 88.4554 239.031 85.6253 239.674 81.9591C237.488 84.5962 234.786 85.9469 232.664 86.3328C232.342 86.3971 232.02 86.3971 231.699 86.3971C229.962 86.3971 228.161 86.3328 224.945 87.0403C223.144 87.4906 221.086 88.1338 218.449 89.6131C218.642 88.8413 219.092 88.1981 219.735 87.6192C221.794 85.368 223.466 84.4032 226.232 83.2455C227.196 82.8595 228.033 82.5379 228.869 81.8947C231.249 80.0938 233.371 76.8778 233.435 73.2116C231.699 76.106 229.255 77.8426 227.261 78.5501C226.939 78.6788 226.618 78.7431 226.296 78.8074C224.559 79.129 222.758 79.322 219.671 80.544C218.063 81.2515 216.133 82.152 213.689 84.0173C213.754 83.3098 214.139 82.5379 214.654 81.8304C216.326 79.322 217.87 78.0999 220.378 76.5562C221.279 76.0417 222.051 75.5271 222.758 74.8196C224.881 72.697 226.489 69.1594 225.974 65.4932C224.688 68.6449 222.501 70.7674 220.636 71.7966C220.378 71.9252 220.057 72.0538 219.8 72.1182C218.127 72.697 216.391 73.2116 213.496 74.8839C211.953 75.8487 210.216 77.0708 208.093 79.2576C208.093 78.5501 208.351 77.7783 208.737 77.0065C210.023 74.2407 211.309 72.8257 213.561 70.8318C214.332 70.1886 215.04 69.6097 215.683 68.7735C217.42 66.3294 218.449 62.5988 217.355 59.0613C216.584 62.3416 214.783 64.7857 213.11 66.0721C212.853 66.2651 212.596 66.458 212.274 66.5867C210.731 67.4228 209.058 68.1303 206.55 70.2529C205.135 71.475 203.591 72.9543 201.919 75.4628C201.726 74.7553 201.854 73.9191 202.176 73.083C203.012 70.1886 204.041 68.5806 205.971 66.2651C206.614 65.4932 207.257 64.85 207.708 63.8852C209.058 61.1838 209.444 57.3889 207.836 54.0443C207.643 57.4533 206.228 60.0904 204.749 61.634C204.492 61.8913 204.299 62.0843 204.041 62.2772C202.626 63.3064 201.083 64.3355 198.896 66.8439Z" fill="#FFFF00"/>
</svg>
