<svg xmlns="http://www.w3.org/2000/svg" viewBox="0 0 318.79 393.66"><title>main_logo black</title><g id="Layer_2" data-name="Layer 2"><g id="Слой_1" data-name="Слой 1"><path d="M44.85,176.43c2-9.54,6.19-18.19,11.15-26.54a120.63,120.63,0,0,0,0,25.42C49.64,174,50.87,174,44.85,176.43Zm20.29-3.34a4.48,4.48,0,0,1,2.9-2.68c.38-4.64.71-5.32,2.66-8,1.42-1.94,3.09-3.69,4.64-5.53,10.44-12.45,2.34-24.42,9.73-31.94a16.75,16.75,0,0,1,2.14-1.82A13.5,13.5,0,0,1,84.54,114C67.9,125.08,67,154.81,65.14,173.09ZM80.27,28.32q3.57-2.67,7.33-5.12,3.6,3.15,7.71,7C89.39,29.72,84.52,29.11,80.27,28.32ZM27,176.34a142.82,142.82,0,0,1,28.2-124,41,41,0,0,1,16.57,3,12.8,12.8,0,0,1,3.14,7.07C64.19,67.57,51.1,66,48.12,72.67c-3.19,7.09,3.69,16.68,14.53,8.77C69,76.84,76,72.19,91.39,71.85l-3.67,2.61c-6.69,4-22.25,15.29-29.31,15.45-.73,7.87-1.32,7.66-5.5,14.13,6.3-4.22,35.15-27.53,44-28.27-1.81,3.43-5.43,6.39-9.13,9.09C69.9,98,53.76,114.22,47.16,136c-3.17,12.84-6.88,27.12-9.95,40.31C34.85,176.28,30.4,175.16,27,176.34Zm240.21,212c0-.35,0-.63,0-.83v-.12l27.66-65.84.13-.37c0-.59-.34-.88-1-.88H273a3.31,3.31,0,0,1-1.82-.54,3.88,3.88,0,0,1-1.32-1.41,3.64,3.64,0,0,1-.49-1.8v-7.89a3.05,3.05,0,0,1,.44-1.78,3.46,3.46,0,0,1,1.34-1.26,3.76,3.76,0,0,1,1.85-.46h42.3a3.44,3.44,0,0,1,2,1.47,5,5,0,0,1,.72,2.78,6.58,6.58,0,0,1-.05.68,3.06,3.06,0,0,0-.08.7l-27.28,65.08-.13.38a1,1,0,0,0,.32.69,1,1,0,0,0,.68.31h23.78q3.21,0,3.38,3.75l.13,7.39a3.92,3.92,0,0,1-.49,1.86,4.34,4.34,0,0,1-1.3,1.54,2.86,2.86,0,0,1-1.72.6H269.35a4.3,4.3,0,0,1-1.7-1.62A5.43,5.43,0,0,1,267.2,388.36Zm-51.67.8V308.3a3.07,3.07,0,0,1,.94-2.33,3.34,3.34,0,0,1,2.44-.92h36.92a3.34,3.34,0,0,1,2.4.93,3,3,0,0,1,1,2.32v8.64a3.36,3.36,0,0,1-3.38,3.38H230.55v19.15H249.7a3,3,0,0,1,3.13,3.13v8.76a3,3,0,0,1-3.13,3.13H230.55v22.78h25.28a3.34,3.34,0,0,1,2.4.93,3,3,0,0,1,1,2.32v8.64a3.36,3.36,0,0,1-3.38,3.38H218.91a3.24,3.24,0,0,1-2.43-1A3.32,3.32,0,0,1,215.53,389.16ZM153.7,390V308.68a3.11,3.11,0,0,1,.43-1.58,3.31,3.31,0,0,1,1.17-1.21,3.07,3.07,0,0,1,1.65-.46h9.14a2.55,2.55,0,0,1,1.49.47,3.52,3.52,0,0,1,1.1,1.23,3.14,3.14,0,0,1,.42,1.55v23l15.51-23.91a8.45,8.45,0,0,1,1.86-1.71,3.17,3.17,0,0,1,2-.66l9.27-.13a4.26,4.26,0,0,1,2.1.63,4.32,4.32,0,0,1,1.49,1.45,3.37,3.37,0,0,1,.54,1.8,2.44,2.44,0,0,1-.5,1.75l-21.91,33.55,27.79,42.43a6.13,6.13,0,0,1,.63,2.25,4.21,4.21,0,0,1-.48,2,3.43,3.43,0,0,1-1.37,1.43,3.7,3.7,0,0,1-2,.46H193.5a3.51,3.51,0,0,1-1.95-.59,4.76,4.76,0,0,1-1.55-1.79l-20.9-32.79V390a2.73,2.73,0,0,1-.42,1.44,3.36,3.36,0,0,1-1.1,1.12,2.76,2.76,0,0,1-1.49.44H157a3.23,3.23,0,0,1-1.65-.43,3.15,3.15,0,0,1-1.17-1.12A2.71,2.71,0,0,1,153.7,390ZM116.9,378.9a9,9,0,0,0,4.88-1.42,10.46,10.46,0,0,0,4.88-8.85V327.71a9.35,9.35,0,0,0-1.31-4.91,9.47,9.47,0,0,0-3.58-3.47,10.08,10.08,0,0,0-5-1.26h-.38a10.25,10.25,0,0,0-5,1.26,9.7,9.7,0,0,0-3.64,3.47,9.2,9.2,0,0,0-1.35,4.91v40.92a10.05,10.05,0,0,0,1.35,5.07,10.37,10.37,0,0,0,3.66,3.78,9.3,9.3,0,0,0,5,1.42ZM94,381.4a24.45,24.45,0,0,1-3.26-12.27V328a24.26,24.26,0,0,1,1.46-8.38,23.16,23.16,0,0,1,4.16-7.19,24.23,24.23,0,0,1,6.4-5.34,23.34,23.34,0,0,1,12-3.13h4.14a24.32,24.32,0,0,1,15.44,5.51,23.19,23.19,0,0,1,5.33,6.26,23.48,23.48,0,0,1,3.13,12.14l.12,41.3a23.85,23.85,0,0,1-1.46,8.29,24.93,24.93,0,0,1-4.17,7.31,25.38,25.38,0,0,1-6.38,5.56A22.18,22.18,0,0,1,119,393.66H114.9a23.38,23.38,0,0,1-8.25-1.48,24.52,24.52,0,0,1-7.22-4.26A24.78,24.78,0,0,1,94,381.4ZM54.57,342.72a7.12,7.12,0,0,0,3.52-.9,6.82,6.82,0,0,0,2.55-2.42,6.17,6.17,0,0,0,.94-3.31V324.7a6.63,6.63,0,0,0-.94-3.48,6.77,6.77,0,0,0-2.55-2.49,7,7,0,0,0-3.52-.91H47.69a1.48,1.48,0,0,0-1.14.54,1.72,1.72,0,0,0-.49,1.21v21a2.17,2.17,0,0,0,2.13,2.12ZM30.29,389.91v-81a3.43,3.43,0,0,1,.46-1.74A3.49,3.49,0,0,1,32,305.9a3.35,3.35,0,0,1,1.77-.47H58.33a22,22,0,0,1,10.06,2.31A16.53,16.53,0,0,1,77.6,323v15.27a15.27,15.27,0,0,1-1.16,5.83,17.32,17.32,0,0,1-3.26,5.13A18.13,18.13,0,0,1,68.34,353l.12.25L81,390a1.64,1.64,0,0,1,.13.87,1.67,1.67,0,0,1-.68,1.33,2.59,2.59,0,0,1-1.7.55H67.84a3.66,3.66,0,0,1-1.63-.4,5.65,5.65,0,0,1-1.48-1,3.76,3.76,0,0,1-.9-1.31L53.7,358.74a6.48,6.48,0,0,0-3.13-.87,4.25,4.25,0,0,0-3.38,1.5v30.54a2.56,2.56,0,0,1-1,2,3.62,3.62,0,0,1-2.39.83h-10a3.81,3.81,0,0,1-2.5-.83A2.54,2.54,0,0,1,30.29,389.91ZM0,389.66v-81a3.34,3.34,0,0,1,.93-2.4,3.06,3.06,0,0,1,2.33-1h9.26a2.83,2.83,0,0,1,1.52.45A3.29,3.29,0,0,1,15.21,307a3.42,3.42,0,0,1,.44,1.7v81a3.39,3.39,0,0,1-.44,1.7A3.29,3.29,0,0,1,14,392.59a2.83,2.83,0,0,1-1.52.45H3.26a3.06,3.06,0,0,1-2.33-1A3.34,3.34,0,0,1,0,389.66ZM165.58,0a142.63,142.63,0,0,1,37.55,280.23,71.9,71.9,0,0,1-3.8-9.31c-4.92-16.39-10.7-29.57-28-38.56-6.54-3.4-10.9-4.38-16.1-9.87a19.92,19.92,0,0,0-3.4-3,89.76,89.76,0,0,1,4.68-19.9c2.22-5.83,5.92-7.42,12.72-5.38,5.47,1.64,10.5,5.47,17.42,2,5.38-2.7,7.65-7.36,6-14.41a44.35,44.35,0,0,1,5.3-3,4.44,4.44,0,0,0,2.23-5.53,19.77,19.77,0,0,1-1.25-5.6c6.57-.14,4.69-1.4,5.65-6.9.72-4,3.41-3.92,6.12-2.85,6.05,2.4,5.09-10.1,3.84-13.69-1.35-3.84-2.86-8.81-4-13.29-.92-3.58.06-3.66,2.35-6.73,1.24-1.66,2.12-2.89,2.9-3.72,1.08-1.15,2.18-.08,1.69-1.52a5.85,5.85,0,0,1-.3-1.25c-.4-2.57-3.62-7.12-4.91-9.71-4.75-9.52-3.52-12.09-4.09-16.26-1.65-12-14.86-25.5-24.73-31.82-5.15-3.29-11.37-6.87-14.36-7.67.19-2.14.87-2.57,2.36-3.92a57.39,57.39,0,0,0-7.85,1.57A10.8,10.8,0,0,1,168,46.18c2.09-1.17,3.66-2.56,4.29-5-1.82,1-7.12,3.56-9.42,3.93a16.89,16.89,0,0,1,1.57-6.29c-4.45,1.19-2.64,5.49-9.42,7.07a18.57,18.57,0,0,0,1.09-11.37,9,9,0,0,0-2.66-5.12,7.77,7.77,0,0,1-2.35,3.93,11.87,11.87,0,0,0-3.93-5.5c1.34,3.8,1.48,4.46,1.57,10.21-3.46-.29-3.46-.91-3.92-3.93-3.46,2.83-.2,3.64-5.84,8.3-.09.07-.31.22-.45.34-10-5.3-11.77-6.78-18.16-13-4.79-4.66-8.12-11.25-11.17-18.19A142.21,142.21,0,0,1,165.58,0Z"/></g></g></svg>