<svg width="35" height="29" viewBox="0 0 35 29" fill="none" xmlns="http://www.w3.org/2000/svg">
<path d="M34.3632 3.50776C33.0891 4.06667 31.7314 4.43714 30.3159 4.61702C31.7721 3.7476 32.8835 2.38138 33.406 0.734633C32.0483 1.54409 30.5494 2.11585 28.9519 2.43492C27.6627 1.06227 25.8254 0.212128 23.821 0.212128C19.9322 0.212128 16.8015 3.36857 16.8015 7.23811C16.8015 7.79488 16.8486 8.33023 16.9642 8.83988C11.1246 8.55508 5.95735 5.75625 2.48612 1.49269C1.8801 2.54413 1.52463 3.7476 1.52463 5.04316C1.52463 7.4758 2.77735 9.63221 4.64467 10.8807C3.51614 10.8592 2.40903 10.5316 1.47109 10.0155C1.47109 10.0369 1.47109 10.0648 1.47109 10.0926C1.47109 13.506 3.90588 16.3413 7.09873 16.9944C6.52697 17.1507 5.90382 17.2257 5.25711 17.2257C4.80741 17.2257 4.35343 17.2 3.92729 17.1057C4.83739 19.8874 7.41994 21.9325 10.4907 21.9989C8.10091 23.8683 5.06653 24.9947 1.7816 24.9947C1.20556 24.9947 0.653071 24.969 0.100586 24.8983C3.21206 26.9049 6.89958 28.0505 10.8762 28.0505C23.8018 28.0505 30.8684 17.3434 30.8684 8.06255C30.8684 7.75205 30.8577 7.45225 30.8427 7.15459C32.2368 6.16526 33.4081 4.92966 34.3632 3.50776Z" fill="#03A9F4"/>
</svg>
