<svg width="2100" height="6162" viewBox="0 0 2100 6162" fill="none" xmlns="http://www.w3.org/2000/svg">
<rect y="76.7891" width="2099.31" height="76.4854" fill="#C4C4C4" fill-opacity="0.05"/>
<rect y="180.635" width="2099.31" height="76.4854" fill="#C4C4C4" fill-opacity="0.05"/>
<rect y="284.481" width="2099.31" height="76.4854" fill="#C4C4C4" fill-opacity="0.05"/>
<rect y="388.327" width="2099.31" height="76.4854" fill="#C4C4C4" fill-opacity="0.05"/>
<rect y="492.173" width="2099.31" height="76.4854" fill="#C4C4C4" fill-opacity="0.05"/>
<rect y="596.02" width="2099.31" height="76.4854" fill="#C4C4C4" fill-opacity="0.05"/>
<rect y="699.865" width="2099.31" height="76.4854" fill="#C4C4C4" fill-opacity="0.05"/>
<rect y="803.711" width="2099.31" height="76.4854" fill="#C4C4C4" fill-opacity="0.05"/>
<rect y="907.557" width="2099.31" height="76.4854" fill="#C4C4C4" fill-opacity="0.05"/>
<rect y="1011.4" width="2099.31" height="76.4854" fill="#C4C4C4" fill-opacity="0.05"/>
<rect y="1115.25" width="2099.31" height="76.4854" fill="#C4C4C4" fill-opacity="0.05"/>
<rect y="1219.1" width="2099.31" height="76.4854" fill="#C4C4C4" fill-opacity="0.05"/>
<rect y="1322.94" width="2099.31" height="76.4854" fill="#C4C4C4" fill-opacity="0.05"/>
<rect y="1426.79" width="2099.31" height="76.4854" fill="#C4C4C4" fill-opacity="0.05"/>
<rect y="1530.63" width="2099.31" height="76.4854" fill="#C4C4C4" fill-opacity="0.05"/>
<rect y="1634.48" width="2099.31" height="76.4854" fill="#C4C4C4" fill-opacity="0.05"/>
<rect y="1738.33" width="2099.31" height="76.4854" fill="#C4C4C4" fill-opacity="0.05"/>
<rect y="1842.17" width="2099.31" height="76.4854" fill="#C4C4C4" fill-opacity="0.05"/>
<rect y="1946.02" width="2099.31" height="76.4854" fill="#C4C4C4" fill-opacity="0.05"/>
<rect x="76.7964" y="2099.31" width="2099.31" height="76.4854" transform="rotate(-90 76.7964 2099.31)" fill="#C4C4C4" fill-opacity="0.05"/>
<rect x="180.642" y="2099.31" width="2099.31" height="76.4854" transform="rotate(-90 180.642 2099.31)" fill="#C4C4C4" fill-opacity="0.05"/>
<rect x="284.488" y="2099.31" width="2099.31" height="76.4854" transform="rotate(-90 284.488 2099.31)" fill="#C4C4C4" fill-opacity="0.05"/>
<rect x="388.334" y="2099.31" width="2099.31" height="76.4854" transform="rotate(-90 388.334 2099.31)" fill="#C4C4C4" fill-opacity="0.05"/>
<rect x="492.18" y="2099.31" width="2099.31" height="76.4854" transform="rotate(-90 492.18 2099.31)" fill="#C4C4C4" fill-opacity="0.05"/>
<rect x="596.026" y="2099.31" width="2099.31" height="76.4854" transform="rotate(-90 596.026 2099.31)" fill="#C4C4C4" fill-opacity="0.05"/>
<rect x="699.872" y="2099.31" width="2099.31" height="76.4854" transform="rotate(-90 699.872 2099.31)" fill="#C4C4C4" fill-opacity="0.05"/>
<rect x="803.719" y="2099.31" width="2099.31" height="76.4854" transform="rotate(-90 803.719 2099.31)" fill="#C4C4C4" fill-opacity="0.05"/>
<rect x="907.564" y="2099.31" width="2099.31" height="76.4854" transform="rotate(-90 907.564 2099.31)" fill="#C4C4C4" fill-opacity="0.05"/>
<rect x="1011.41" y="2099.31" width="2099.31" height="76.4854" transform="rotate(-90 1011.41 2099.31)" fill="#C4C4C4" fill-opacity="0.05"/>
<rect x="1115.26" y="2099.31" width="2099.31" height="76.4854" transform="rotate(-90 1115.26 2099.31)" fill="#C4C4C4" fill-opacity="0.05"/>
<rect x="1219.1" y="2099.31" width="2099.31" height="76.4854" transform="rotate(-90 1219.1 2099.31)" fill="#C4C4C4" fill-opacity="0.05"/>
<rect x="1322.95" y="2099.31" width="2099.31" height="76.4854" transform="rotate(-90 1322.95 2099.31)" fill="#C4C4C4" fill-opacity="0.05"/>
<rect x="1426.79" y="2099.31" width="2099.31" height="76.4854" transform="rotate(-90 1426.79 2099.31)" fill="#C4C4C4" fill-opacity="0.05"/>
<rect x="1530.64" y="2099.31" width="2099.31" height="76.4854" transform="rotate(-90 1530.64 2099.31)" fill="#C4C4C4" fill-opacity="0.05"/>
<rect x="1634.49" y="2099.31" width="2099.31" height="76.4854" transform="rotate(-90 1634.49 2099.31)" fill="#C4C4C4" fill-opacity="0.05"/>
<rect x="1738.33" y="2099.31" width="2099.31" height="76.4854" transform="rotate(-90 1738.33 2099.31)" fill="#C4C4C4" fill-opacity="0.05"/>
<rect x="1842.18" y="2099.31" width="2099.31" height="76.4854" transform="rotate(-90 1842.18 2099.31)" fill="#C4C4C4" fill-opacity="0.05"/>
<rect x="1946.02" y="2099.31" width="2099.31" height="76.4854" transform="rotate(-90 1946.02 2099.31)" fill="#C4C4C4" fill-opacity="0.05"/>
<rect y="2108.1" width="2099.31" height="76.4854" fill="#C4C4C4" fill-opacity="0.05"/>
<rect y="2211.94" width="2099.31" height="76.4854" fill="#C4C4C4" fill-opacity="0.05"/>
<rect y="2315.79" width="2099.31" height="76.4854" fill="#C4C4C4" fill-opacity="0.05"/>
<rect y="2419.63" width="2099.31" height="76.4854" fill="#C4C4C4" fill-opacity="0.05"/>
<rect y="2523.48" width="2099.31" height="76.4854" fill="#C4C4C4" fill-opacity="0.05"/>
<rect y="2627.33" width="2099.31" height="76.4854" fill="#C4C4C4" fill-opacity="0.05"/>
<rect y="2731.17" width="2099.31" height="76.4854" fill="#C4C4C4" fill-opacity="0.05"/>
<rect y="2835.02" width="2099.31" height="76.4854" fill="#C4C4C4" fill-opacity="0.05"/>
<rect y="2938.86" width="2099.31" height="76.4854" fill="#C4C4C4" fill-opacity="0.05"/>
<rect y="3042.71" width="2099.31" height="76.4854" fill="#C4C4C4" fill-opacity="0.05"/>
<rect y="3146.56" width="2099.31" height="76.4854" fill="#C4C4C4" fill-opacity="0.05"/>
<rect y="3250.4" width="2099.31" height="76.4854" fill="#C4C4C4" fill-opacity="0.05"/>
<rect y="3354.25" width="2099.31" height="76.4854" fill="#C4C4C4" fill-opacity="0.05"/>
<rect y="3458.09" width="2099.31" height="76.4854" fill="#C4C4C4" fill-opacity="0.05"/>
<rect y="3561.94" width="2099.31" height="76.4854" fill="#C4C4C4" fill-opacity="0.05"/>
<rect y="3665.79" width="2099.31" height="76.4854" fill="#C4C4C4" fill-opacity="0.05"/>
<rect y="3769.63" width="2099.31" height="76.4854" fill="#C4C4C4" fill-opacity="0.05"/>
<rect y="3873.48" width="2099.31" height="76.4854" fill="#C4C4C4" fill-opacity="0.05"/>
<rect y="3977.32" width="2099.31" height="76.4854" fill="#C4C4C4" fill-opacity="0.05"/>
<rect x="76.7964" y="4130.61" width="2099.31" height="76.4854" transform="rotate(-90 76.7964 4130.61)" fill="#C4C4C4" fill-opacity="0.05"/>
<rect x="180.642" y="4130.61" width="2099.31" height="76.4854" transform="rotate(-90 180.642 4130.61)" fill="#C4C4C4" fill-opacity="0.05"/>
<rect x="284.488" y="4130.61" width="2099.31" height="76.4854" transform="rotate(-90 284.488 4130.61)" fill="#C4C4C4" fill-opacity="0.05"/>
<rect x="388.334" y="4130.61" width="2099.31" height="76.4854" transform="rotate(-90 388.334 4130.61)" fill="#C4C4C4" fill-opacity="0.05"/>
<rect x="492.18" y="4130.61" width="2099.31" height="76.4854" transform="rotate(-90 492.18 4130.61)" fill="#C4C4C4" fill-opacity="0.05"/>
<rect x="596.026" y="4130.61" width="2099.31" height="76.4854" transform="rotate(-90 596.026 4130.61)" fill="#C4C4C4" fill-opacity="0.05"/>
<rect x="699.872" y="4130.61" width="2099.31" height="76.4854" transform="rotate(-90 699.872 4130.61)" fill="#C4C4C4" fill-opacity="0.05"/>
<rect x="803.719" y="4130.61" width="2099.31" height="76.4854" transform="rotate(-90 803.719 4130.61)" fill="#C4C4C4" fill-opacity="0.05"/>
<rect x="907.564" y="4130.61" width="2099.31" height="76.4854" transform="rotate(-90 907.564 4130.61)" fill="#C4C4C4" fill-opacity="0.05"/>
<rect x="1011.41" y="4130.61" width="2099.31" height="76.4854" transform="rotate(-90 1011.41 4130.61)" fill="#C4C4C4" fill-opacity="0.05"/>
<rect x="1115.26" y="4130.61" width="2099.31" height="76.4854" transform="rotate(-90 1115.26 4130.61)" fill="#C4C4C4" fill-opacity="0.05"/>
<rect x="1219.1" y="4130.61" width="2099.31" height="76.4854" transform="rotate(-90 1219.1 4130.61)" fill="#C4C4C4" fill-opacity="0.05"/>
<rect x="1322.95" y="4130.61" width="2099.31" height="76.4854" transform="rotate(-90 1322.95 4130.61)" fill="#C4C4C4" fill-opacity="0.05"/>
<rect x="1426.79" y="4130.61" width="2099.31" height="76.4854" transform="rotate(-90 1426.79 4130.61)" fill="#C4C4C4" fill-opacity="0.05"/>
<rect x="1530.64" y="4130.61" width="2099.31" height="76.4854" transform="rotate(-90 1530.64 4130.61)" fill="#C4C4C4" fill-opacity="0.05"/>
<rect x="1634.49" y="4130.61" width="2099.31" height="76.4854" transform="rotate(-90 1634.49 4130.61)" fill="#C4C4C4" fill-opacity="0.05"/>
<rect x="1738.33" y="4130.61" width="2099.31" height="76.4854" transform="rotate(-90 1738.33 4130.61)" fill="#C4C4C4" fill-opacity="0.05"/>
<rect x="1842.18" y="4130.61" width="2099.31" height="76.4854" transform="rotate(-90 1842.18 4130.61)" fill="#C4C4C4" fill-opacity="0.05"/>
<rect x="1946.02" y="4130.61" width="2099.31" height="76.4854" transform="rotate(-90 1946.02 4130.61)" fill="#C4C4C4" fill-opacity="0.05"/>
<rect y="4139.4" width="2099.31" height="76.4854" fill="#C4C4C4" fill-opacity="0.05"/>
<rect y="4243.25" width="2099.31" height="76.4854" fill="#C4C4C4" fill-opacity="0.05"/>
<rect y="4347.09" width="2099.31" height="76.4854" fill="#C4C4C4" fill-opacity="0.05"/>
<rect y="4450.94" width="2099.31" height="76.4854" fill="#C4C4C4" fill-opacity="0.05"/>
<rect y="4554.79" width="2099.31" height="76.4854" fill="#C4C4C4" fill-opacity="0.05"/>
<rect y="4658.63" width="2099.31" height="76.4854" fill="#C4C4C4" fill-opacity="0.05"/>
<rect y="4762.48" width="2099.31" height="76.4854" fill="#C4C4C4" fill-opacity="0.05"/>
<rect y="4866.32" width="2099.31" height="76.4854" fill="#C4C4C4" fill-opacity="0.05"/>
<rect y="4970.17" width="2099.31" height="76.4854" fill="#C4C4C4" fill-opacity="0.05"/>
<rect y="5074.02" width="2099.31" height="76.4854" fill="#C4C4C4" fill-opacity="0.05"/>
<rect y="5177.86" width="2099.31" height="76.4854" fill="#C4C4C4" fill-opacity="0.05"/>
<rect y="5281.71" width="2099.31" height="76.4854" fill="#C4C4C4" fill-opacity="0.05"/>
<rect y="5385.55" width="2099.31" height="76.4854" fill="#C4C4C4" fill-opacity="0.05"/>
<rect y="5489.4" width="2099.31" height="76.4854" fill="#C4C4C4" fill-opacity="0.05"/>
<rect y="5593.25" width="2099.31" height="76.4854" fill="#C4C4C4" fill-opacity="0.05"/>
<rect y="5697.09" width="2099.31" height="76.4854" fill="#C4C4C4" fill-opacity="0.05"/>
<rect y="5800.94" width="2099.31" height="76.4854" fill="#C4C4C4" fill-opacity="0.05"/>
<rect y="5904.78" width="2099.31" height="76.4854" fill="#C4C4C4" fill-opacity="0.05"/>
<rect y="6008.63" width="2099.31" height="76.4854" fill="#C4C4C4" fill-opacity="0.05"/>
<rect x="76.7964" y="6161.92" width="2099.31" height="76.4854" transform="rotate(-90 76.7964 6161.92)" fill="#C4C4C4" fill-opacity="0.05"/>
<rect x="180.642" y="6161.92" width="2099.31" height="76.4854" transform="rotate(-90 180.642 6161.92)" fill="#C4C4C4" fill-opacity="0.05"/>
<rect x="284.488" y="6161.92" width="2099.31" height="76.4854" transform="rotate(-90 284.488 6161.92)" fill="#C4C4C4" fill-opacity="0.05"/>
<rect x="388.334" y="6161.92" width="2099.31" height="76.4854" transform="rotate(-90 388.334 6161.92)" fill="#C4C4C4" fill-opacity="0.05"/>
<rect x="492.18" y="6161.92" width="2099.31" height="76.4854" transform="rotate(-90 492.18 6161.92)" fill="#C4C4C4" fill-opacity="0.05"/>
<rect x="596.026" y="6161.92" width="2099.31" height="76.4854" transform="rotate(-90 596.026 6161.92)" fill="#C4C4C4" fill-opacity="0.05"/>
<rect x="699.872" y="6161.92" width="2099.31" height="76.4854" transform="rotate(-90 699.872 6161.92)" fill="#C4C4C4" fill-opacity="0.05"/>
<rect x="803.719" y="6161.92" width="2099.31" height="76.4854" transform="rotate(-90 803.719 6161.92)" fill="#C4C4C4" fill-opacity="0.05"/>
<rect x="907.564" y="6161.92" width="2099.31" height="76.4854" transform="rotate(-90 907.564 6161.92)" fill="#C4C4C4" fill-opacity="0.05"/>
<rect x="1011.41" y="6161.92" width="2099.31" height="76.4854" transform="rotate(-90 1011.41 6161.92)" fill="#C4C4C4" fill-opacity="0.05"/>
<rect x="1115.26" y="6161.92" width="2099.31" height="76.4854" transform="rotate(-90 1115.26 6161.92)" fill="#C4C4C4" fill-opacity="0.05"/>
<rect x="1219.1" y="6161.92" width="2099.31" height="76.4854" transform="rotate(-90 1219.1 6161.92)" fill="#C4C4C4" fill-opacity="0.05"/>
<rect x="1322.95" y="6161.92" width="2099.31" height="76.4854" transform="rotate(-90 1322.95 6161.92)" fill="#C4C4C4" fill-opacity="0.05"/>
<rect x="1426.79" y="6161.92" width="2099.31" height="76.4854" transform="rotate(-90 1426.79 6161.92)" fill="#C4C4C4" fill-opacity="0.05"/>
<rect x="1530.64" y="6161.92" width="2099.31" height="76.4854" transform="rotate(-90 1530.64 6161.92)" fill="#C4C4C4" fill-opacity="0.05"/>
<rect x="1634.49" y="6161.92" width="2099.31" height="76.4854" transform="rotate(-90 1634.49 6161.92)" fill="#C4C4C4" fill-opacity="0.05"/>
<rect x="1738.33" y="6161.92" width="2099.31" height="76.4854" transform="rotate(-90 1738.33 6161.92)" fill="#C4C4C4" fill-opacity="0.05"/>
<rect x="1842.18" y="6161.92" width="2099.31" height="76.4854" transform="rotate(-90 1842.18 6161.92)" fill="#C4C4C4" fill-opacity="0.05"/>
<rect x="1946.02" y="6161.92" width="2099.31" height="76.4854" transform="rotate(-90 1946.02 6161.92)" fill="#C4C4C4" fill-opacity="0.05"/>
</svg>
